<?xml version="1.0" encoding="utf-8" standalone="no"?>
<!DOCTYPE svg PUBLIC "-//W3C//DTD SVG 1.1//EN"
  "http://www.w3.org/Graphics/SVG/1.1/DTD/svg11.dtd">
<!-- Created with matplotlib (https://matplotlib.org/) -->
<svg height="288pt" version="1.1" viewBox="0 0 432 288" width="432pt" xmlns="http://www.w3.org/2000/svg" xmlns:xlink="http://www.w3.org/1999/xlink">
 <defs>
  <style type="text/css">
*{stroke-linecap:butt;stroke-linejoin:round;}
  </style>
 </defs>
 <g id="figure_1">
  <g id="patch_1">
   <path d="M 0 288 
L 432 288 
L 432 0 
L 0 0 
z
" style="fill:#ffffff;"/>
  </g>
  <g id="axes_1">
   <g id="patch_2">
    <path d="M 54 252 
L 388.8 252 
L 388.8 34.56 
L 54 34.56 
z
" style="fill:#ffffff;"/>
   </g>
   <g id="matplotlib.axis_1">
    <g id="xtick_1">
     <g id="line2d_1">
      <defs>
       <path d="M 0 0 
L 0 3.5 
" id="med0deb3ee9" style="stroke:#000000;stroke-width:0.8;"/>
      </defs>
      <g>
       <use style="stroke:#000000;stroke-width:0.8;" x="69.218182" xlink:href="#med0deb3ee9" y="252"/>
      </g>
     </g>
     <g id="text_1">
      <!-- 0 -->
      <defs>
       <path d="M 31.78125 66.40625 
Q 24.171875 66.40625 20.328125 58.90625 
Q 16.5 51.421875 16.5 36.375 
Q 16.5 21.390625 20.328125 13.890625 
Q 24.171875 6.390625 31.78125 6.390625 
Q 39.453125 6.390625 43.28125 13.890625 
Q 47.125 21.390625 47.125 36.375 
Q 47.125 51.421875 43.28125 58.90625 
Q 39.453125 66.40625 31.78125 66.40625 
z
M 31.78125 74.21875 
Q 44.046875 74.21875 50.515625 64.515625 
Q 56.984375 54.828125 56.984375 36.375 
Q 56.984375 17.96875 50.515625 8.265625 
Q 44.046875 -1.421875 31.78125 -1.421875 
Q 19.53125 -1.421875 13.0625 8.265625 
Q 6.59375 17.96875 6.59375 36.375 
Q 6.59375 54.828125 13.0625 64.515625 
Q 19.53125 74.21875 31.78125 74.21875 
z
" id="DejaVuSans-48"/>
      </defs>
      <g transform="translate(66.036932 266.598437)scale(0.1 -0.1)">
       <use xlink:href="#DejaVuSans-48"/>
      </g>
     </g>
    </g>
    <g id="xtick_2">
     <g id="line2d_2">
      <g>
       <use style="stroke:#000000;stroke-width:0.8;" x="109.827073" xlink:href="#med0deb3ee9" y="252"/>
      </g>
     </g>
     <g id="text_2">
      <!-- 200 -->
      <defs>
       <path d="M 19.1875 8.296875 
L 53.609375 8.296875 
L 53.609375 0 
L 7.328125 0 
L 7.328125 8.296875 
Q 12.9375 14.109375 22.625 23.890625 
Q 32.328125 33.6875 34.8125 36.53125 
Q 39.546875 41.84375 41.421875 45.53125 
Q 43.3125 49.21875 43.3125 52.78125 
Q 43.3125 58.59375 39.234375 62.25 
Q 35.15625 65.921875 28.609375 65.921875 
Q 23.96875 65.921875 18.8125 64.3125 
Q 13.671875 62.703125 7.8125 59.421875 
L 7.8125 69.390625 
Q 13.765625 71.78125 18.9375 73 
Q 24.125 74.21875 28.421875 74.21875 
Q 39.75 74.21875 46.484375 68.546875 
Q 53.21875 62.890625 53.21875 53.421875 
Q 53.21875 48.921875 51.53125 44.890625 
Q 49.859375 40.875 45.40625 35.40625 
Q 44.1875 33.984375 37.640625 27.21875 
Q 31.109375 20.453125 19.1875 8.296875 
z
" id="DejaVuSans-50"/>
      </defs>
      <g transform="translate(100.283323 266.598437)scale(0.1 -0.1)">
       <use xlink:href="#DejaVuSans-50"/>
       <use x="63.623047" xlink:href="#DejaVuSans-48"/>
       <use x="127.246094" xlink:href="#DejaVuSans-48"/>
      </g>
     </g>
    </g>
    <g id="xtick_3">
     <g id="line2d_3">
      <g>
       <use style="stroke:#000000;stroke-width:0.8;" x="150.435963" xlink:href="#med0deb3ee9" y="252"/>
      </g>
     </g>
     <g id="text_3">
      <!-- 400 -->
      <defs>
       <path d="M 37.796875 64.3125 
L 12.890625 25.390625 
L 37.796875 25.390625 
z
M 35.203125 72.90625 
L 47.609375 72.90625 
L 47.609375 25.390625 
L 58.015625 25.390625 
L 58.015625 17.1875 
L 47.609375 17.1875 
L 47.609375 0 
L 37.796875 0 
L 37.796875 17.1875 
L 4.890625 17.1875 
L 4.890625 26.703125 
z
" id="DejaVuSans-52"/>
      </defs>
      <g transform="translate(140.892213 266.598437)scale(0.1 -0.1)">
       <use xlink:href="#DejaVuSans-52"/>
       <use x="63.623047" xlink:href="#DejaVuSans-48"/>
       <use x="127.246094" xlink:href="#DejaVuSans-48"/>
      </g>
     </g>
    </g>
    <g id="xtick_4">
     <g id="line2d_4">
      <g>
       <use style="stroke:#000000;stroke-width:0.8;" x="191.044854" xlink:href="#med0deb3ee9" y="252"/>
      </g>
     </g>
     <g id="text_4">
      <!-- 600 -->
      <defs>
       <path d="M 33.015625 40.375 
Q 26.375 40.375 22.484375 35.828125 
Q 18.609375 31.296875 18.609375 23.390625 
Q 18.609375 15.53125 22.484375 10.953125 
Q 26.375 6.390625 33.015625 6.390625 
Q 39.65625 6.390625 43.53125 10.953125 
Q 47.40625 15.53125 47.40625 23.390625 
Q 47.40625 31.296875 43.53125 35.828125 
Q 39.65625 40.375 33.015625 40.375 
z
M 52.59375 71.296875 
L 52.59375 62.3125 
Q 48.875 64.0625 45.09375 64.984375 
Q 41.3125 65.921875 37.59375 65.921875 
Q 27.828125 65.921875 22.671875 59.328125 
Q 17.53125 52.734375 16.796875 39.40625 
Q 19.671875 43.65625 24.015625 45.921875 
Q 28.375 48.1875 33.59375 48.1875 
Q 44.578125 48.1875 50.953125 41.515625 
Q 57.328125 34.859375 57.328125 23.390625 
Q 57.328125 12.15625 50.6875 5.359375 
Q 44.046875 -1.421875 33.015625 -1.421875 
Q 20.359375 -1.421875 13.671875 8.265625 
Q 6.984375 17.96875 6.984375 36.375 
Q 6.984375 53.65625 15.1875 63.9375 
Q 23.390625 74.21875 37.203125 74.21875 
Q 40.921875 74.21875 44.703125 73.484375 
Q 48.484375 72.75 52.59375 71.296875 
z
" id="DejaVuSans-54"/>
      </defs>
      <g transform="translate(181.501104 266.598437)scale(0.1 -0.1)">
       <use xlink:href="#DejaVuSans-54"/>
       <use x="63.623047" xlink:href="#DejaVuSans-48"/>
       <use x="127.246094" xlink:href="#DejaVuSans-48"/>
      </g>
     </g>
    </g>
    <g id="xtick_5">
     <g id="line2d_5">
      <g>
       <use style="stroke:#000000;stroke-width:0.8;" x="231.653745" xlink:href="#med0deb3ee9" y="252"/>
      </g>
     </g>
     <g id="text_5">
      <!-- 800 -->
      <defs>
       <path d="M 31.78125 34.625 
Q 24.75 34.625 20.71875 30.859375 
Q 16.703125 27.09375 16.703125 20.515625 
Q 16.703125 13.921875 20.71875 10.15625 
Q 24.75 6.390625 31.78125 6.390625 
Q 38.8125 6.390625 42.859375 10.171875 
Q 46.921875 13.96875 46.921875 20.515625 
Q 46.921875 27.09375 42.890625 30.859375 
Q 38.875 34.625 31.78125 34.625 
z
M 21.921875 38.8125 
Q 15.578125 40.375 12.03125 44.71875 
Q 8.5 49.078125 8.5 55.328125 
Q 8.5 64.0625 14.71875 69.140625 
Q 20.953125 74.21875 31.78125 74.21875 
Q 42.671875 74.21875 48.875 69.140625 
Q 55.078125 64.0625 55.078125 55.328125 
Q 55.078125 49.078125 51.53125 44.71875 
Q 48 40.375 41.703125 38.8125 
Q 48.828125 37.15625 52.796875 32.3125 
Q 56.78125 27.484375 56.78125 20.515625 
Q 56.78125 9.90625 50.3125 4.234375 
Q 43.84375 -1.421875 31.78125 -1.421875 
Q 19.734375 -1.421875 13.25 4.234375 
Q 6.78125 9.90625 6.78125 20.515625 
Q 6.78125 27.484375 10.78125 32.3125 
Q 14.796875 37.15625 21.921875 38.8125 
z
M 18.3125 54.390625 
Q 18.3125 48.734375 21.84375 45.5625 
Q 25.390625 42.390625 31.78125 42.390625 
Q 38.140625 42.390625 41.71875 45.5625 
Q 45.3125 48.734375 45.3125 54.390625 
Q 45.3125 60.0625 41.71875 63.234375 
Q 38.140625 66.40625 31.78125 66.40625 
Q 25.390625 66.40625 21.84375 63.234375 
Q 18.3125 60.0625 18.3125 54.390625 
z
" id="DejaVuSans-56"/>
      </defs>
      <g transform="translate(222.109995 266.598437)scale(0.1 -0.1)">
       <use xlink:href="#DejaVuSans-56"/>
       <use x="63.623047" xlink:href="#DejaVuSans-48"/>
       <use x="127.246094" xlink:href="#DejaVuSans-48"/>
      </g>
     </g>
    </g>
    <g id="xtick_6">
     <g id="line2d_6">
      <g>
       <use style="stroke:#000000;stroke-width:0.8;" x="272.262636" xlink:href="#med0deb3ee9" y="252"/>
      </g>
     </g>
     <g id="text_6">
      <!-- 1000 -->
      <defs>
       <path d="M 12.40625 8.296875 
L 28.515625 8.296875 
L 28.515625 63.921875 
L 10.984375 60.40625 
L 10.984375 69.390625 
L 28.421875 72.90625 
L 38.28125 72.90625 
L 38.28125 8.296875 
L 54.390625 8.296875 
L 54.390625 0 
L 12.40625 0 
z
" id="DejaVuSans-49"/>
      </defs>
      <g transform="translate(259.537636 266.598437)scale(0.1 -0.1)">
       <use xlink:href="#DejaVuSans-49"/>
       <use x="63.623047" xlink:href="#DejaVuSans-48"/>
       <use x="127.246094" xlink:href="#DejaVuSans-48"/>
       <use x="190.869141" xlink:href="#DejaVuSans-48"/>
      </g>
     </g>
    </g>
    <g id="xtick_7">
     <g id="line2d_7">
      <g>
       <use style="stroke:#000000;stroke-width:0.8;" x="312.871526" xlink:href="#med0deb3ee9" y="252"/>
      </g>
     </g>
     <g id="text_7">
      <!-- 1200 -->
      <g transform="translate(300.146526 266.598437)scale(0.1 -0.1)">
       <use xlink:href="#DejaVuSans-49"/>
       <use x="63.623047" xlink:href="#DejaVuSans-50"/>
       <use x="127.246094" xlink:href="#DejaVuSans-48"/>
       <use x="190.869141" xlink:href="#DejaVuSans-48"/>
      </g>
     </g>
    </g>
    <g id="xtick_8">
     <g id="line2d_8">
      <g>
       <use style="stroke:#000000;stroke-width:0.8;" x="353.480417" xlink:href="#med0deb3ee9" y="252"/>
      </g>
     </g>
     <g id="text_8">
      <!-- 1400 -->
      <g transform="translate(340.755417 266.598437)scale(0.1 -0.1)">
       <use xlink:href="#DejaVuSans-49"/>
       <use x="63.623047" xlink:href="#DejaVuSans-52"/>
       <use x="127.246094" xlink:href="#DejaVuSans-48"/>
       <use x="190.869141" xlink:href="#DejaVuSans-48"/>
      </g>
     </g>
    </g>
    <g id="text_9">
     <!-- Time (sec) -->
     <defs>
      <path d="M -0.296875 72.90625 
L 61.375 72.90625 
L 61.375 64.59375 
L 35.5 64.59375 
L 35.5 0 
L 25.59375 0 
L 25.59375 64.59375 
L -0.296875 64.59375 
z
" id="DejaVuSans-84"/>
      <path d="M 9.421875 54.6875 
L 18.40625 54.6875 
L 18.40625 0 
L 9.421875 0 
z
M 9.421875 75.984375 
L 18.40625 75.984375 
L 18.40625 64.59375 
L 9.421875 64.59375 
z
" id="DejaVuSans-105"/>
      <path d="M 52 44.1875 
Q 55.375 50.25 60.0625 53.125 
Q 64.75 56 71.09375 56 
Q 79.640625 56 84.28125 50.015625 
Q 88.921875 44.046875 88.921875 33.015625 
L 88.921875 0 
L 79.890625 0 
L 79.890625 32.71875 
Q 79.890625 40.578125 77.09375 44.375 
Q 74.3125 48.1875 68.609375 48.1875 
Q 61.625 48.1875 57.5625 43.546875 
Q 53.515625 38.921875 53.515625 30.90625 
L 53.515625 0 
L 44.484375 0 
L 44.484375 32.71875 
Q 44.484375 40.625 41.703125 44.40625 
Q 38.921875 48.1875 33.109375 48.1875 
Q 26.21875 48.1875 22.15625 43.53125 
Q 18.109375 38.875 18.109375 30.90625 
L 18.109375 0 
L 9.078125 0 
L 9.078125 54.6875 
L 18.109375 54.6875 
L 18.109375 46.1875 
Q 21.1875 51.21875 25.484375 53.609375 
Q 29.78125 56 35.6875 56 
Q 41.65625 56 45.828125 52.96875 
Q 50 49.953125 52 44.1875 
z
" id="DejaVuSans-109"/>
      <path d="M 56.203125 29.59375 
L 56.203125 25.203125 
L 14.890625 25.203125 
Q 15.484375 15.921875 20.484375 11.0625 
Q 25.484375 6.203125 34.421875 6.203125 
Q 39.59375 6.203125 44.453125 7.46875 
Q 49.3125 8.734375 54.109375 11.28125 
L 54.109375 2.78125 
Q 49.265625 0.734375 44.1875 -0.34375 
Q 39.109375 -1.421875 33.890625 -1.421875 
Q 20.796875 -1.421875 13.15625 6.1875 
Q 5.515625 13.8125 5.515625 26.8125 
Q 5.515625 40.234375 12.765625 48.109375 
Q 20.015625 56 32.328125 56 
Q 43.359375 56 49.78125 48.890625 
Q 56.203125 41.796875 56.203125 29.59375 
z
M 47.21875 32.234375 
Q 47.125 39.59375 43.09375 43.984375 
Q 39.0625 48.390625 32.421875 48.390625 
Q 24.90625 48.390625 20.390625 44.140625 
Q 15.875 39.890625 15.1875 32.171875 
z
" id="DejaVuSans-101"/>
      <path id="DejaVuSans-32"/>
      <path d="M 31 75.875 
Q 24.46875 64.65625 21.28125 53.65625 
Q 18.109375 42.671875 18.109375 31.390625 
Q 18.109375 20.125 21.3125 9.0625 
Q 24.515625 -2 31 -13.1875 
L 23.1875 -13.1875 
Q 15.875 -1.703125 12.234375 9.375 
Q 8.59375 20.453125 8.59375 31.390625 
Q 8.59375 42.28125 12.203125 53.3125 
Q 15.828125 64.359375 23.1875 75.875 
z
" id="DejaVuSans-40"/>
      <path d="M 44.28125 53.078125 
L 44.28125 44.578125 
Q 40.484375 46.53125 36.375 47.5 
Q 32.28125 48.484375 27.875 48.484375 
Q 21.1875 48.484375 17.84375 46.4375 
Q 14.5 44.390625 14.5 40.28125 
Q 14.5 37.15625 16.890625 35.375 
Q 19.28125 33.59375 26.515625 31.984375 
L 29.59375 31.296875 
Q 39.15625 29.25 43.1875 25.515625 
Q 47.21875 21.78125 47.21875 15.09375 
Q 47.21875 7.46875 41.1875 3.015625 
Q 35.15625 -1.421875 24.609375 -1.421875 
Q 20.21875 -1.421875 15.453125 -0.5625 
Q 10.6875 0.296875 5.421875 2 
L 5.421875 11.28125 
Q 10.40625 8.6875 15.234375 7.390625 
Q 20.0625 6.109375 24.8125 6.109375 
Q 31.15625 6.109375 34.5625 8.28125 
Q 37.984375 10.453125 37.984375 14.40625 
Q 37.984375 18.0625 35.515625 20.015625 
Q 33.0625 21.96875 24.703125 23.78125 
L 21.578125 24.515625 
Q 13.234375 26.265625 9.515625 29.90625 
Q 5.8125 33.546875 5.8125 39.890625 
Q 5.8125 47.609375 11.28125 51.796875 
Q 16.75 56 26.8125 56 
Q 31.78125 56 36.171875 55.265625 
Q 40.578125 54.546875 44.28125 53.078125 
z
" id="DejaVuSans-115"/>
      <path d="M 48.78125 52.59375 
L 48.78125 44.1875 
Q 44.96875 46.296875 41.140625 47.34375 
Q 37.3125 48.390625 33.40625 48.390625 
Q 24.65625 48.390625 19.8125 42.84375 
Q 14.984375 37.3125 14.984375 27.296875 
Q 14.984375 17.28125 19.8125 11.734375 
Q 24.65625 6.203125 33.40625 6.203125 
Q 37.3125 6.203125 41.140625 7.25 
Q 44.96875 8.296875 48.78125 10.40625 
L 48.78125 2.09375 
Q 45.015625 0.34375 40.984375 -0.53125 
Q 36.96875 -1.421875 32.421875 -1.421875 
Q 20.0625 -1.421875 12.78125 6.34375 
Q 5.515625 14.109375 5.515625 27.296875 
Q 5.515625 40.671875 12.859375 48.328125 
Q 20.21875 56 33.015625 56 
Q 37.15625 56 41.109375 55.140625 
Q 45.0625 54.296875 48.78125 52.59375 
z
" id="DejaVuSans-99"/>
      <path d="M 8.015625 75.875 
L 15.828125 75.875 
Q 23.140625 64.359375 26.78125 53.3125 
Q 30.421875 42.28125 30.421875 31.390625 
Q 30.421875 20.453125 26.78125 9.375 
Q 23.140625 -1.703125 15.828125 -13.1875 
L 8.015625 -13.1875 
Q 14.5 -2 17.703125 9.0625 
Q 20.90625 20.125 20.90625 31.390625 
Q 20.90625 42.671875 17.703125 53.65625 
Q 14.5 64.65625 8.015625 75.875 
z
" id="DejaVuSans-41"/>
     </defs>
     <g transform="translate(195.091406 280.276563)scale(0.1 -0.1)">
      <use xlink:href="#DejaVuSans-84"/>
      <use x="61.037109" xlink:href="#DejaVuSans-105"/>
      <use x="88.820312" xlink:href="#DejaVuSans-109"/>
      <use x="186.232422" xlink:href="#DejaVuSans-101"/>
      <use x="247.755859" xlink:href="#DejaVuSans-32"/>
      <use x="279.542969" xlink:href="#DejaVuSans-40"/>
      <use x="318.556641" xlink:href="#DejaVuSans-115"/>
      <use x="370.65625" xlink:href="#DejaVuSans-101"/>
      <use x="432.179688" xlink:href="#DejaVuSans-99"/>
      <use x="487.160156" xlink:href="#DejaVuSans-41"/>
     </g>
    </g>
   </g>
   <g id="matplotlib.axis_2">
    <g id="ytick_1">
     <g id="line2d_9">
      <defs>
       <path d="M 0 0 
L -3.5 0 
" id="mff77a41283" style="stroke:#000000;stroke-width:0.8;"/>
      </defs>
      <g>
       <use style="stroke:#000000;stroke-width:0.8;" x="54" xlink:href="#mff77a41283" y="242.116364"/>
      </g>
     </g>
     <g id="text_10">
      <!-- 0 -->
      <g transform="translate(40.6375 245.915582)scale(0.1 -0.1)">
       <use xlink:href="#DejaVuSans-48"/>
      </g>
     </g>
    </g>
    <g id="ytick_2">
     <g id="line2d_10">
      <g>
       <use style="stroke:#000000;stroke-width:0.8;" x="54" xlink:href="#mff77a41283" y="206.175868"/>
      </g>
     </g>
     <g id="text_11">
      <!-- 2 -->
      <g transform="translate(40.6375 209.975087)scale(0.1 -0.1)">
       <use xlink:href="#DejaVuSans-50"/>
      </g>
     </g>
    </g>
    <g id="ytick_3">
     <g id="line2d_11">
      <g>
       <use style="stroke:#000000;stroke-width:0.8;" x="54" xlink:href="#mff77a41283" y="170.235372"/>
      </g>
     </g>
     <g id="text_12">
      <!-- 4 -->
      <g transform="translate(40.6375 174.034591)scale(0.1 -0.1)">
       <use xlink:href="#DejaVuSans-52"/>
      </g>
     </g>
    </g>
    <g id="ytick_4">
     <g id="line2d_12">
      <g>
       <use style="stroke:#000000;stroke-width:0.8;" x="54" xlink:href="#mff77a41283" y="134.294876"/>
      </g>
     </g>
     <g id="text_13">
      <!-- 6 -->
      <g transform="translate(40.6375 138.094095)scale(0.1 -0.1)">
       <use xlink:href="#DejaVuSans-54"/>
      </g>
     </g>
    </g>
    <g id="ytick_5">
     <g id="line2d_13">
      <g>
       <use style="stroke:#000000;stroke-width:0.8;" x="54" xlink:href="#mff77a41283" y="98.35438"/>
      </g>
     </g>
     <g id="text_14">
      <!-- 8 -->
      <g transform="translate(40.6375 102.153599)scale(0.1 -0.1)">
       <use xlink:href="#DejaVuSans-56"/>
      </g>
     </g>
    </g>
    <g id="ytick_6">
     <g id="line2d_14">
      <g>
       <use style="stroke:#000000;stroke-width:0.8;" x="54" xlink:href="#mff77a41283" y="62.413884"/>
      </g>
     </g>
     <g id="text_15">
      <!-- 10 -->
      <g transform="translate(34.275 66.213103)scale(0.1 -0.1)">
       <use xlink:href="#DejaVuSans-49"/>
       <use x="63.623047" xlink:href="#DejaVuSans-48"/>
      </g>
     </g>
    </g>
    <g id="text_16">
     <!-- Example Spike Trains          -->
     <defs>
      <path d="M 9.8125 72.90625 
L 55.90625 72.90625 
L 55.90625 64.59375 
L 19.671875 64.59375 
L 19.671875 43.015625 
L 54.390625 43.015625 
L 54.390625 34.71875 
L 19.671875 34.71875 
L 19.671875 8.296875 
L 56.78125 8.296875 
L 56.78125 0 
L 9.8125 0 
z
" id="DejaVuSans-69"/>
      <path d="M 54.890625 54.6875 
L 35.109375 28.078125 
L 55.90625 0 
L 45.3125 0 
L 29.390625 21.484375 
L 13.484375 0 
L 2.875 0 
L 24.125 28.609375 
L 4.6875 54.6875 
L 15.28125 54.6875 
L 29.78125 35.203125 
L 44.28125 54.6875 
z
" id="DejaVuSans-120"/>
      <path d="M 34.28125 27.484375 
Q 23.390625 27.484375 19.1875 25 
Q 14.984375 22.515625 14.984375 16.5 
Q 14.984375 11.71875 18.140625 8.90625 
Q 21.296875 6.109375 26.703125 6.109375 
Q 34.1875 6.109375 38.703125 11.40625 
Q 43.21875 16.703125 43.21875 25.484375 
L 43.21875 27.484375 
z
M 52.203125 31.203125 
L 52.203125 0 
L 43.21875 0 
L 43.21875 8.296875 
Q 40.140625 3.328125 35.546875 0.953125 
Q 30.953125 -1.421875 24.3125 -1.421875 
Q 15.921875 -1.421875 10.953125 3.296875 
Q 6 8.015625 6 15.921875 
Q 6 25.140625 12.171875 29.828125 
Q 18.359375 34.515625 30.609375 34.515625 
L 43.21875 34.515625 
L 43.21875 35.40625 
Q 43.21875 41.609375 39.140625 45 
Q 35.0625 48.390625 27.6875 48.390625 
Q 23 48.390625 18.546875 47.265625 
Q 14.109375 46.140625 10.015625 43.890625 
L 10.015625 52.203125 
Q 14.9375 54.109375 19.578125 55.046875 
Q 24.21875 56 28.609375 56 
Q 40.484375 56 46.34375 49.84375 
Q 52.203125 43.703125 52.203125 31.203125 
z
" id="DejaVuSans-97"/>
      <path d="M 18.109375 8.203125 
L 18.109375 -20.796875 
L 9.078125 -20.796875 
L 9.078125 54.6875 
L 18.109375 54.6875 
L 18.109375 46.390625 
Q 20.953125 51.265625 25.265625 53.625 
Q 29.59375 56 35.59375 56 
Q 45.5625 56 51.78125 48.09375 
Q 58.015625 40.1875 58.015625 27.296875 
Q 58.015625 14.40625 51.78125 6.484375 
Q 45.5625 -1.421875 35.59375 -1.421875 
Q 29.59375 -1.421875 25.265625 0.953125 
Q 20.953125 3.328125 18.109375 8.203125 
z
M 48.6875 27.296875 
Q 48.6875 37.203125 44.609375 42.84375 
Q 40.53125 48.484375 33.40625 48.484375 
Q 26.265625 48.484375 22.1875 42.84375 
Q 18.109375 37.203125 18.109375 27.296875 
Q 18.109375 17.390625 22.1875 11.75 
Q 26.265625 6.109375 33.40625 6.109375 
Q 40.53125 6.109375 44.609375 11.75 
Q 48.6875 17.390625 48.6875 27.296875 
z
" id="DejaVuSans-112"/>
      <path d="M 9.421875 75.984375 
L 18.40625 75.984375 
L 18.40625 0 
L 9.421875 0 
z
" id="DejaVuSans-108"/>
      <path d="M 53.515625 70.515625 
L 53.515625 60.890625 
Q 47.90625 63.578125 42.921875 64.890625 
Q 37.9375 66.21875 33.296875 66.21875 
Q 25.25 66.21875 20.875 63.09375 
Q 16.5 59.96875 16.5 54.203125 
Q 16.5 49.359375 19.40625 46.890625 
Q 22.3125 44.4375 30.421875 42.921875 
L 36.375 41.703125 
Q 47.40625 39.59375 52.65625 34.296875 
Q 57.90625 29 57.90625 20.125 
Q 57.90625 9.515625 50.796875 4.046875 
Q 43.703125 -1.421875 29.984375 -1.421875 
Q 24.8125 -1.421875 18.96875 -0.25 
Q 13.140625 0.921875 6.890625 3.21875 
L 6.890625 13.375 
Q 12.890625 10.015625 18.65625 8.296875 
Q 24.421875 6.59375 29.984375 6.59375 
Q 38.421875 6.59375 43.015625 9.90625 
Q 47.609375 13.234375 47.609375 19.390625 
Q 47.609375 24.75 44.3125 27.78125 
Q 41.015625 30.8125 33.5 32.328125 
L 27.484375 33.5 
Q 16.453125 35.6875 11.515625 40.375 
Q 6.59375 45.0625 6.59375 53.421875 
Q 6.59375 63.09375 13.40625 68.65625 
Q 20.21875 74.21875 32.171875 74.21875 
Q 37.3125 74.21875 42.625 73.28125 
Q 47.953125 72.359375 53.515625 70.515625 
z
" id="DejaVuSans-83"/>
      <path d="M 9.078125 75.984375 
L 18.109375 75.984375 
L 18.109375 31.109375 
L 44.921875 54.6875 
L 56.390625 54.6875 
L 27.390625 29.109375 
L 57.625 0 
L 45.90625 0 
L 18.109375 26.703125 
L 18.109375 0 
L 9.078125 0 
z
" id="DejaVuSans-107"/>
      <path d="M 41.109375 46.296875 
Q 39.59375 47.171875 37.8125 47.578125 
Q 36.03125 48 33.890625 48 
Q 26.265625 48 22.1875 43.046875 
Q 18.109375 38.09375 18.109375 28.8125 
L 18.109375 0 
L 9.078125 0 
L 9.078125 54.6875 
L 18.109375 54.6875 
L 18.109375 46.1875 
Q 20.953125 51.171875 25.484375 53.578125 
Q 30.03125 56 36.53125 56 
Q 37.453125 56 38.578125 55.875 
Q 39.703125 55.765625 41.0625 55.515625 
z
" id="DejaVuSans-114"/>
      <path d="M 54.890625 33.015625 
L 54.890625 0 
L 45.90625 0 
L 45.90625 32.71875 
Q 45.90625 40.484375 42.875 44.328125 
Q 39.84375 48.1875 33.796875 48.1875 
Q 26.515625 48.1875 22.3125 43.546875 
Q 18.109375 38.921875 18.109375 30.90625 
L 18.109375 0 
L 9.078125 0 
L 9.078125 54.6875 
L 18.109375 54.6875 
L 18.109375 46.1875 
Q 21.34375 51.125 25.703125 53.5625 
Q 30.078125 56 35.796875 56 
Q 45.21875 56 50.046875 50.171875 
Q 54.890625 44.34375 54.890625 33.015625 
z
" id="DejaVuSans-110"/>
     </defs>
     <g transform="translate(28.195312 211.484688)rotate(-90)scale(0.1 -0.1)">
      <use xlink:href="#DejaVuSans-69"/>
      <use x="63.183594" xlink:href="#DejaVuSans-120"/>
      <use x="122.363281" xlink:href="#DejaVuSans-97"/>
      <use x="183.642578" xlink:href="#DejaVuSans-109"/>
      <use x="281.054688" xlink:href="#DejaVuSans-112"/>
      <use x="344.53125" xlink:href="#DejaVuSans-108"/>
      <use x="372.314453" xlink:href="#DejaVuSans-101"/>
      <use x="433.837891" xlink:href="#DejaVuSans-32"/>
      <use x="465.625" xlink:href="#DejaVuSans-83"/>
      <use x="529.101562" xlink:href="#DejaVuSans-112"/>
      <use x="592.578125" xlink:href="#DejaVuSans-105"/>
      <use x="620.361328" xlink:href="#DejaVuSans-107"/>
      <use x="678.224609" xlink:href="#DejaVuSans-101"/>
      <use x="739.748047" xlink:href="#DejaVuSans-32"/>
      <use x="771.535156" xlink:href="#DejaVuSans-84"/>
      <use x="832.400391" xlink:href="#DejaVuSans-114"/>
      <use x="873.513672" xlink:href="#DejaVuSans-97"/>
      <use x="934.792969" xlink:href="#DejaVuSans-105"/>
      <use x="962.576172" xlink:href="#DejaVuSans-110"/>
      <use x="1025.955078" xlink:href="#DejaVuSans-115"/>
      <use x="1078.054688" xlink:href="#DejaVuSans-32"/>
      <use x="1109.841797" xlink:href="#DejaVuSans-32"/>
      <use x="1141.628906" xlink:href="#DejaVuSans-32"/>
      <use x="1173.416016" xlink:href="#DejaVuSans-32"/>
      <use x="1205.203125" xlink:href="#DejaVuSans-32"/>
      <use x="1236.990234" xlink:href="#DejaVuSans-32"/>
      <use x="1268.777344" xlink:href="#DejaVuSans-32"/>
      <use x="1300.564453" xlink:href="#DejaVuSans-32"/>
      <use x="1332.351562" xlink:href="#DejaVuSans-32"/>
     </g>
    </g>
   </g>
   <g id="LineCollection_1">
    <path clip-path="url(#pb7ee290e10)" d="M 147.398567 231.334215 
L 147.398567 216.958017 
" style="fill:none;stroke:#a91227;stroke-width:1.5;"/>
    <path clip-path="url(#pb7ee290e10)" d="M 163.59156 231.334215 
L 163.59156 216.958017 
" style="fill:none;stroke:#a91227;stroke-width:1.5;"/>
    <path clip-path="url(#pb7ee290e10)" d="M 180.022754 231.334215 
L 180.022754 216.958017 
" style="fill:none;stroke:#a91227;stroke-width:1.5;"/>
    <path clip-path="url(#pb7ee290e10)" d="M 214.470559 231.334215 
L 214.470559 216.958017 
" style="fill:none;stroke:#a91227;stroke-width:1.5;"/>
    <path clip-path="url(#pb7ee290e10)" d="M 228.75659 231.334215 
L 228.75659 216.958017 
" style="fill:none;stroke:#a91227;stroke-width:1.5;"/>
    <path clip-path="url(#pb7ee290e10)" d="M 276.501454 231.334215 
L 276.501454 216.958017 
" style="fill:none;stroke:#a91227;stroke-width:1.5;"/>
    <path clip-path="url(#pb7ee290e10)" d="M 298.252024 231.334215 
L 298.252024 216.958017 
" style="fill:none;stroke:#a91227;stroke-width:1.5;"/>
    <path clip-path="url(#pb7ee290e10)" d="M 299.17566 231.334215 
L 299.17566 216.958017 
" style="fill:none;stroke:#a91227;stroke-width:1.5;"/>
    <path clip-path="url(#pb7ee290e10)" d="M 300.105928 231.334215 
L 300.105928 216.958017 
" style="fill:none;stroke:#a91227;stroke-width:1.5;"/>
    <path clip-path="url(#pb7ee290e10)" d="M 323.084099 231.334215 
L 323.084099 216.958017 
" style="fill:none;stroke:#a91227;stroke-width:1.5;"/>
    <path clip-path="url(#pb7ee290e10)" d="M 326.008447 231.334215 
L 326.008447 216.958017 
" style="fill:none;stroke:#a91227;stroke-width:1.5;"/>
    <path clip-path="url(#pb7ee290e10)" d="M 328.401396 231.334215 
L 328.401396 216.958017 
" style="fill:none;stroke:#a91227;stroke-width:1.5;"/>
    <path clip-path="url(#pb7ee290e10)" d="M 338.053114 231.334215 
L 338.053114 216.958017 
" style="fill:none;stroke:#a91227;stroke-width:1.5;"/>
    <path clip-path="url(#pb7ee290e10)" d="M 339.491016 231.334215 
L 339.491016 216.958017 
" style="fill:none;stroke:#a91227;stroke-width:1.5;"/>
    <path clip-path="url(#pb7ee290e10)" d="M 365.481278 231.334215 
L 365.481278 216.958017 
" style="fill:none;stroke:#a91227;stroke-width:1.5;"/>
    <path clip-path="url(#pb7ee290e10)" d="M 367.497334 231.334215 
L 367.497334 216.958017 
" style="fill:none;stroke:#a91227;stroke-width:1.5;"/>
   </g>
   <g id="LineCollection_2">
    <path clip-path="url(#pb7ee290e10)" d="M 71.937849 213.363967 
L 71.937849 198.987769 
" style="fill:none;stroke:#c83e1f;stroke-width:1.5;"/>
    <path clip-path="url(#pb7ee290e10)" d="M 114.080125 213.363967 
L 114.080125 198.987769 
" style="fill:none;stroke:#c83e1f;stroke-width:1.5;"/>
    <path clip-path="url(#pb7ee290e10)" d="M 147.72465 213.363967 
L 147.72465 198.987769 
" style="fill:none;stroke:#c83e1f;stroke-width:1.5;"/>
    <path clip-path="url(#pb7ee290e10)" d="M 148.447133 213.363967 
L 148.447133 198.987769 
" style="fill:none;stroke:#c83e1f;stroke-width:1.5;"/>
    <path clip-path="url(#pb7ee290e10)" d="M 216.623552 213.363967 
L 216.623552 198.987769 
" style="fill:none;stroke:#c83e1f;stroke-width:1.5;"/>
    <path clip-path="url(#pb7ee290e10)" d="M 219.940257 213.363967 
L 219.940257 198.987769 
" style="fill:none;stroke:#c83e1f;stroke-width:1.5;"/>
    <path clip-path="url(#pb7ee290e10)" d="M 240.603136 213.363967 
L 240.603136 198.987769 
" style="fill:none;stroke:#c83e1f;stroke-width:1.5;"/>
    <path clip-path="url(#pb7ee290e10)" d="M 244.783551 213.363967 
L 244.783551 198.987769 
" style="fill:none;stroke:#c83e1f;stroke-width:1.5;"/>
    <path clip-path="url(#pb7ee290e10)" d="M 276.423913 213.363967 
L 276.423913 198.987769 
" style="fill:none;stroke:#c83e1f;stroke-width:1.5;"/>
    <path clip-path="url(#pb7ee290e10)" d="M 307.774697 213.363967 
L 307.774697 198.987769 
" style="fill:none;stroke:#c83e1f;stroke-width:1.5;"/>
    <path clip-path="url(#pb7ee290e10)" d="M 339.910726 213.363967 
L 339.910726 198.987769 
" style="fill:none;stroke:#c83e1f;stroke-width:1.5;"/>
    <path clip-path="url(#pb7ee290e10)" d="M 346.004915 213.363967 
L 346.004915 198.987769 
" style="fill:none;stroke:#c83e1f;stroke-width:1.5;"/>
    <path clip-path="url(#pb7ee290e10)" d="M 347.529195 213.363967 
L 347.529195 198.987769 
" style="fill:none;stroke:#c83e1f;stroke-width:1.5;"/>
    <path clip-path="url(#pb7ee290e10)" d="M 354.630797 213.363967 
L 354.630797 198.987769 
" style="fill:none;stroke:#c83e1f;stroke-width:1.5;"/>
   </g>
   <g id="LineCollection_3">
    <path clip-path="url(#pb7ee290e10)" d="M 73.270683 195.393719 
L 73.270683 181.017521 
" style="fill:none;stroke:#d47532;stroke-width:1.5;"/>
    <path clip-path="url(#pb7ee290e10)" d="M 83.425311 195.393719 
L 83.425311 181.017521 
" style="fill:none;stroke:#d47532;stroke-width:1.5;"/>
    <path clip-path="url(#pb7ee290e10)" d="M 88.643737 195.393719 
L 88.643737 181.017521 
" style="fill:none;stroke:#d47532;stroke-width:1.5;"/>
    <path clip-path="url(#pb7ee290e10)" d="M 90.105192 195.393719 
L 90.105192 181.017521 
" style="fill:none;stroke:#d47532;stroke-width:1.5;"/>
    <path clip-path="url(#pb7ee290e10)" d="M 99.290135 195.393719 
L 99.290135 181.017521 
" style="fill:none;stroke:#d47532;stroke-width:1.5;"/>
    <path clip-path="url(#pb7ee290e10)" d="M 110.255749 195.393719 
L 110.255749 181.017521 
" style="fill:none;stroke:#d47532;stroke-width:1.5;"/>
    <path clip-path="url(#pb7ee290e10)" d="M 131.836841 195.393719 
L 131.836841 181.017521 
" style="fill:none;stroke:#d47532;stroke-width:1.5;"/>
    <path clip-path="url(#pb7ee290e10)" d="M 143.375429 195.393719 
L 143.375429 181.017521 
" style="fill:none;stroke:#d47532;stroke-width:1.5;"/>
    <path clip-path="url(#pb7ee290e10)" d="M 153.649772 195.393719 
L 153.649772 181.017521 
" style="fill:none;stroke:#d47532;stroke-width:1.5;"/>
    <path clip-path="url(#pb7ee290e10)" d="M 180.48713 195.393719 
L 180.48713 181.017521 
" style="fill:none;stroke:#d47532;stroke-width:1.5;"/>
    <path clip-path="url(#pb7ee290e10)" d="M 190.88693 195.393719 
L 190.88693 181.017521 
" style="fill:none;stroke:#d47532;stroke-width:1.5;"/>
    <path clip-path="url(#pb7ee290e10)" d="M 196.846399 195.393719 
L 196.846399 181.017521 
" style="fill:none;stroke:#d47532;stroke-width:1.5;"/>
    <path clip-path="url(#pb7ee290e10)" d="M 292.009971 195.393719 
L 292.009971 181.017521 
" style="fill:none;stroke:#d47532;stroke-width:1.5;"/>
    <path clip-path="url(#pb7ee290e10)" d="M 292.2085 195.393719 
L 292.2085 181.017521 
" style="fill:none;stroke:#d47532;stroke-width:1.5;"/>
    <path clip-path="url(#pb7ee290e10)" d="M 295.757262 195.393719 
L 295.757262 181.017521 
" style="fill:none;stroke:#d47532;stroke-width:1.5;"/>
    <path clip-path="url(#pb7ee290e10)" d="M 296.800966 195.393719 
L 296.800966 181.017521 
" style="fill:none;stroke:#d47532;stroke-width:1.5;"/>
    <path clip-path="url(#pb7ee290e10)" d="M 301.230602 195.393719 
L 301.230602 181.017521 
" style="fill:none;stroke:#d47532;stroke-width:1.5;"/>
    <path clip-path="url(#pb7ee290e10)" d="M 302.03691 195.393719 
L 302.03691 181.017521 
" style="fill:none;stroke:#d47532;stroke-width:1.5;"/>
   </g>
   <g id="LineCollection_4">
    <path clip-path="url(#pb7ee290e10)" d="M 91.314555 177.423471 
L 91.314555 163.047273 
" style="fill:none;stroke:#d7a856;stroke-width:1.5;"/>
    <path clip-path="url(#pb7ee290e10)" d="M 100.900829 177.423471 
L 100.900829 163.047273 
" style="fill:none;stroke:#d7a856;stroke-width:1.5;"/>
    <path clip-path="url(#pb7ee290e10)" d="M 179.149302 177.423471 
L 179.149302 163.047273 
" style="fill:none;stroke:#d7a856;stroke-width:1.5;"/>
    <path clip-path="url(#pb7ee290e10)" d="M 210.488742 177.423471 
L 210.488742 163.047273 
" style="fill:none;stroke:#d7a856;stroke-width:1.5;"/>
    <path clip-path="url(#pb7ee290e10)" d="M 211.633466 177.423471 
L 211.633466 163.047273 
" style="fill:none;stroke:#d7a856;stroke-width:1.5;"/>
    <path clip-path="url(#pb7ee290e10)" d="M 248.845107 177.423471 
L 248.845107 163.047273 
" style="fill:none;stroke:#d7a856;stroke-width:1.5;"/>
    <path clip-path="url(#pb7ee290e10)" d="M 263.035006 177.423471 
L 263.035006 163.047273 
" style="fill:none;stroke:#d7a856;stroke-width:1.5;"/>
    <path clip-path="url(#pb7ee290e10)" d="M 309.48081 177.423471 
L 309.48081 163.047273 
" style="fill:none;stroke:#d7a856;stroke-width:1.5;"/>
    <path clip-path="url(#pb7ee290e10)" d="M 313.499758 177.423471 
L 313.499758 163.047273 
" style="fill:none;stroke:#d7a856;stroke-width:1.5;"/>
    <path clip-path="url(#pb7ee290e10)" d="M 319.201308 177.423471 
L 319.201308 163.047273 
" style="fill:none;stroke:#d7a856;stroke-width:1.5;"/>
    <path clip-path="url(#pb7ee290e10)" d="M 331.201263 177.423471 
L 331.201263 163.047273 
" style="fill:none;stroke:#d7a856;stroke-width:1.5;"/>
    <path clip-path="url(#pb7ee290e10)" d="M 338.445891 177.423471 
L 338.445891 163.047273 
" style="fill:none;stroke:#d7a856;stroke-width:1.5;"/>
    <path clip-path="url(#pb7ee290e10)" d="M 349.845046 177.423471 
L 349.845046 163.047273 
" style="fill:none;stroke:#d7a856;stroke-width:1.5;"/>
    <path clip-path="url(#pb7ee290e10)" d="M 354.651613 177.423471 
L 354.651613 163.047273 
" style="fill:none;stroke:#d7a856;stroke-width:1.5;"/>
   </g>
   <g id="LineCollection_5">
    <path clip-path="url(#pb7ee290e10)" d="M 80.991878 159.453223 
L 80.991878 145.077025 
" style="fill:none;stroke:#d8cb81;stroke-width:1.5;"/>
    <path clip-path="url(#pb7ee290e10)" d="M 99.306052 159.453223 
L 99.306052 145.077025 
" style="fill:none;stroke:#d8cb81;stroke-width:1.5;"/>
    <path clip-path="url(#pb7ee290e10)" d="M 143.040018 159.453223 
L 143.040018 145.077025 
" style="fill:none;stroke:#d8cb81;stroke-width:1.5;"/>
    <path clip-path="url(#pb7ee290e10)" d="M 152.88993 159.453223 
L 152.88993 145.077025 
" style="fill:none;stroke:#d8cb81;stroke-width:1.5;"/>
    <path clip-path="url(#pb7ee290e10)" d="M 164.096653 159.453223 
L 164.096653 145.077025 
" style="fill:none;stroke:#d8cb81;stroke-width:1.5;"/>
    <path clip-path="url(#pb7ee290e10)" d="M 176.141603 159.453223 
L 176.141603 145.077025 
" style="fill:none;stroke:#d8cb81;stroke-width:1.5;"/>
    <path clip-path="url(#pb7ee290e10)" d="M 178.414771 159.453223 
L 178.414771 145.077025 
" style="fill:none;stroke:#d8cb81;stroke-width:1.5;"/>
    <path clip-path="url(#pb7ee290e10)" d="M 186.729618 159.453223 
L 186.729618 145.077025 
" style="fill:none;stroke:#d8cb81;stroke-width:1.5;"/>
    <path clip-path="url(#pb7ee290e10)" d="M 224.478446 159.453223 
L 224.478446 145.077025 
" style="fill:none;stroke:#d8cb81;stroke-width:1.5;"/>
    <path clip-path="url(#pb7ee290e10)" d="M 248.676266 159.453223 
L 248.676266 145.077025 
" style="fill:none;stroke:#d8cb81;stroke-width:1.5;"/>
    <path clip-path="url(#pb7ee290e10)" d="M 253.124931 159.453223 
L 253.124931 145.077025 
" style="fill:none;stroke:#d8cb81;stroke-width:1.5;"/>
    <path clip-path="url(#pb7ee290e10)" d="M 253.751481 159.453223 
L 253.751481 145.077025 
" style="fill:none;stroke:#d8cb81;stroke-width:1.5;"/>
    <path clip-path="url(#pb7ee290e10)" d="M 273.700189 159.453223 
L 273.700189 145.077025 
" style="fill:none;stroke:#d8cb81;stroke-width:1.5;"/>
    <path clip-path="url(#pb7ee290e10)" d="M 290.113634 159.453223 
L 290.113634 145.077025 
" style="fill:none;stroke:#d8cb81;stroke-width:1.5;"/>
    <path clip-path="url(#pb7ee290e10)" d="M 298.356634 159.453223 
L 298.356634 145.077025 
" style="fill:none;stroke:#d8cb81;stroke-width:1.5;"/>
    <path clip-path="url(#pb7ee290e10)" d="M 331.225471 159.453223 
L 331.225471 145.077025 
" style="fill:none;stroke:#d8cb81;stroke-width:1.5;"/>
    <path clip-path="url(#pb7ee290e10)" d="M 353.295422 159.453223 
L 353.295422 145.077025 
" style="fill:none;stroke:#d8cb81;stroke-width:1.5;"/>
   </g>
   <g id="LineCollection_6">
    <path clip-path="url(#pb7ee290e10)" d="M 88.380293 141.482975 
L 88.380293 127.106777 
" style="fill:none;stroke:#cdd487;stroke-width:1.5;"/>
    <path clip-path="url(#pb7ee290e10)" d="M 97.288337 141.482975 
L 97.288337 127.106777 
" style="fill:none;stroke:#cdd487;stroke-width:1.5;"/>
    <path clip-path="url(#pb7ee290e10)" d="M 126.624374 141.482975 
L 126.624374 127.106777 
" style="fill:none;stroke:#cdd487;stroke-width:1.5;"/>
    <path clip-path="url(#pb7ee290e10)" d="M 127.901534 141.482975 
L 127.901534 127.106777 
" style="fill:none;stroke:#cdd487;stroke-width:1.5;"/>
    <path clip-path="url(#pb7ee290e10)" d="M 143.153096 141.482975 
L 143.153096 127.106777 
" style="fill:none;stroke:#cdd487;stroke-width:1.5;"/>
    <path clip-path="url(#pb7ee290e10)" d="M 155.879206 141.482975 
L 155.879206 127.106777 
" style="fill:none;stroke:#cdd487;stroke-width:1.5;"/>
    <path clip-path="url(#pb7ee290e10)" d="M 173.722998 141.482975 
L 173.722998 127.106777 
" style="fill:none;stroke:#cdd487;stroke-width:1.5;"/>
    <path clip-path="url(#pb7ee290e10)" d="M 194.486806 141.482975 
L 194.486806 127.106777 
" style="fill:none;stroke:#cdd487;stroke-width:1.5;"/>
    <path clip-path="url(#pb7ee290e10)" d="M 249.022133 141.482975 
L 249.022133 127.106777 
" style="fill:none;stroke:#cdd487;stroke-width:1.5;"/>
    <path clip-path="url(#pb7ee290e10)" d="M 249.849395 141.482975 
L 249.849395 127.106777 
" style="fill:none;stroke:#cdd487;stroke-width:1.5;"/>
    <path clip-path="url(#pb7ee290e10)" d="M 324.834388 141.482975 
L 324.834388 127.106777 
" style="fill:none;stroke:#cdd487;stroke-width:1.5;"/>
    <path clip-path="url(#pb7ee290e10)" d="M 347.223696 141.482975 
L 347.223696 127.106777 
" style="fill:none;stroke:#cdd487;stroke-width:1.5;"/>
    <path clip-path="url(#pb7ee290e10)" d="M 357.906184 141.482975 
L 357.906184 127.106777 
" style="fill:none;stroke:#cdd487;stroke-width:1.5;"/>
    <path clip-path="url(#pb7ee290e10)" d="M 372.789183 141.482975 
L 372.789183 127.106777 
" style="fill:none;stroke:#cdd487;stroke-width:1.5;"/>
   </g>
   <g id="LineCollection_7">
    <path clip-path="url(#pb7ee290e10)" d="M 87.891754 123.512727 
L 87.891754 109.136529 
" style="fill:none;stroke:#abc676;stroke-width:1.5;"/>
    <path clip-path="url(#pb7ee290e10)" d="M 105.285124 123.512727 
L 105.285124 109.136529 
" style="fill:none;stroke:#abc676;stroke-width:1.5;"/>
    <path clip-path="url(#pb7ee290e10)" d="M 108.804989 123.512727 
L 108.804989 109.136529 
" style="fill:none;stroke:#abc676;stroke-width:1.5;"/>
    <path clip-path="url(#pb7ee290e10)" d="M 110.387158 123.512727 
L 110.387158 109.136529 
" style="fill:none;stroke:#abc676;stroke-width:1.5;"/>
    <path clip-path="url(#pb7ee290e10)" d="M 159.259561 123.512727 
L 159.259561 109.136529 
" style="fill:none;stroke:#abc676;stroke-width:1.5;"/>
    <path clip-path="url(#pb7ee290e10)" d="M 199.641545 123.512727 
L 199.641545 109.136529 
" style="fill:none;stroke:#abc676;stroke-width:1.5;"/>
    <path clip-path="url(#pb7ee290e10)" d="M 203.688162 123.512727 
L 203.688162 109.136529 
" style="fill:none;stroke:#abc676;stroke-width:1.5;"/>
    <path clip-path="url(#pb7ee290e10)" d="M 221.700601 123.512727 
L 221.700601 109.136529 
" style="fill:none;stroke:#abc676;stroke-width:1.5;"/>
    <path clip-path="url(#pb7ee290e10)" d="M 245.751815 123.512727 
L 245.751815 109.136529 
" style="fill:none;stroke:#abc676;stroke-width:1.5;"/>
    <path clip-path="url(#pb7ee290e10)" d="M 247.872345 123.512727 
L 247.872345 109.136529 
" style="fill:none;stroke:#abc676;stroke-width:1.5;"/>
    <path clip-path="url(#pb7ee290e10)" d="M 263.371565 123.512727 
L 263.371565 109.136529 
" style="fill:none;stroke:#abc676;stroke-width:1.5;"/>
    <path clip-path="url(#pb7ee290e10)" d="M 277.77588 123.512727 
L 277.77588 109.136529 
" style="fill:none;stroke:#abc676;stroke-width:1.5;"/>
    <path clip-path="url(#pb7ee290e10)" d="M 282.966734 123.512727 
L 282.966734 109.136529 
" style="fill:none;stroke:#abc676;stroke-width:1.5;"/>
    <path clip-path="url(#pb7ee290e10)" d="M 295.1727 123.512727 
L 295.1727 109.136529 
" style="fill:none;stroke:#abc676;stroke-width:1.5;"/>
    <path clip-path="url(#pb7ee290e10)" d="M 305.819027 123.512727 
L 305.819027 109.136529 
" style="fill:none;stroke:#abc676;stroke-width:1.5;"/>
    <path clip-path="url(#pb7ee290e10)" d="M 323.785241 123.512727 
L 323.785241 109.136529 
" style="fill:none;stroke:#abc676;stroke-width:1.5;"/>
    <path clip-path="url(#pb7ee290e10)" d="M 365.375971 123.512727 
L 365.375971 109.136529 
" style="fill:none;stroke:#abc676;stroke-width:1.5;"/>
   </g>
   <g id="LineCollection_8">
    <path clip-path="url(#pb7ee290e10)" d="M 112.584298 105.542479 
L 112.584298 91.166281 
" style="fill:none;stroke:#70af7e;stroke-width:1.5;"/>
    <path clip-path="url(#pb7ee290e10)" d="M 157.202981 105.542479 
L 157.202981 91.166281 
" style="fill:none;stroke:#70af7e;stroke-width:1.5;"/>
    <path clip-path="url(#pb7ee290e10)" d="M 157.310969 105.542479 
L 157.310969 91.166281 
" style="fill:none;stroke:#70af7e;stroke-width:1.5;"/>
    <path clip-path="url(#pb7ee290e10)" d="M 238.753166 105.542479 
L 238.753166 91.166281 
" style="fill:none;stroke:#70af7e;stroke-width:1.5;"/>
    <path clip-path="url(#pb7ee290e10)" d="M 250.247029 105.542479 
L 250.247029 91.166281 
" style="fill:none;stroke:#70af7e;stroke-width:1.5;"/>
    <path clip-path="url(#pb7ee290e10)" d="M 253.933932 105.542479 
L 253.933932 91.166281 
" style="fill:none;stroke:#70af7e;stroke-width:1.5;"/>
    <path clip-path="url(#pb7ee290e10)" d="M 268.403493 105.542479 
L 268.403493 91.166281 
" style="fill:none;stroke:#70af7e;stroke-width:1.5;"/>
    <path clip-path="url(#pb7ee290e10)" d="M 293.940573 105.542479 
L 293.940573 91.166281 
" style="fill:none;stroke:#70af7e;stroke-width:1.5;"/>
    <path clip-path="url(#pb7ee290e10)" d="M 303.056171 105.542479 
L 303.056171 91.166281 
" style="fill:none;stroke:#70af7e;stroke-width:1.5;"/>
    <path clip-path="url(#pb7ee290e10)" d="M 304.963139 105.542479 
L 304.963139 91.166281 
" style="fill:none;stroke:#70af7e;stroke-width:1.5;"/>
    <path clip-path="url(#pb7ee290e10)" d="M 311.025379 105.542479 
L 311.025379 91.166281 
" style="fill:none;stroke:#70af7e;stroke-width:1.5;"/>
    <path clip-path="url(#pb7ee290e10)" d="M 321.420623 105.542479 
L 321.420623 91.166281 
" style="fill:none;stroke:#70af7e;stroke-width:1.5;"/>
    <path clip-path="url(#pb7ee290e10)" d="M 345.214591 105.542479 
L 345.214591 91.166281 
" style="fill:none;stroke:#70af7e;stroke-width:1.5;"/>
    <path clip-path="url(#pb7ee290e10)" d="M 351.102386 105.542479 
L 351.102386 91.166281 
" style="fill:none;stroke:#70af7e;stroke-width:1.5;"/>
    <path clip-path="url(#pb7ee290e10)" d="M 364.071547 105.542479 
L 364.071547 91.166281 
" style="fill:none;stroke:#70af7e;stroke-width:1.5;"/>
    <path clip-path="url(#pb7ee290e10)" d="M 371.383572 105.542479 
L 371.383572 91.166281 
" style="fill:none;stroke:#70af7e;stroke-width:1.5;"/>
   </g>
   <g id="LineCollection_9">
    <path clip-path="url(#pb7ee290e10)" d="M 69.835303 87.572231 
L 69.835303 73.196033 
" style="fill:none;stroke:#369083;stroke-width:1.5;"/>
    <path clip-path="url(#pb7ee290e10)" d="M 120.989601 87.572231 
L 120.989601 73.196033 
" style="fill:none;stroke:#369083;stroke-width:1.5;"/>
    <path clip-path="url(#pb7ee290e10)" d="M 178.978118 87.572231 
L 178.978118 73.196033 
" style="fill:none;stroke:#369083;stroke-width:1.5;"/>
    <path clip-path="url(#pb7ee290e10)" d="M 181.209889 87.572231 
L 181.209889 73.196033 
" style="fill:none;stroke:#369083;stroke-width:1.5;"/>
    <path clip-path="url(#pb7ee290e10)" d="M 200.985994 87.572231 
L 200.985994 73.196033 
" style="fill:none;stroke:#369083;stroke-width:1.5;"/>
    <path clip-path="url(#pb7ee290e10)" d="M 206.296108 87.572231 
L 206.296108 73.196033 
" style="fill:none;stroke:#369083;stroke-width:1.5;"/>
    <path clip-path="url(#pb7ee290e10)" d="M 268.594887 87.572231 
L 268.594887 73.196033 
" style="fill:none;stroke:#369083;stroke-width:1.5;"/>
    <path clip-path="url(#pb7ee290e10)" d="M 269.554404 87.572231 
L 269.554404 73.196033 
" style="fill:none;stroke:#369083;stroke-width:1.5;"/>
    <path clip-path="url(#pb7ee290e10)" d="M 278.269606 87.572231 
L 278.269606 73.196033 
" style="fill:none;stroke:#369083;stroke-width:1.5;"/>
    <path clip-path="url(#pb7ee290e10)" d="M 312.133109 87.572231 
L 312.133109 73.196033 
" style="fill:none;stroke:#369083;stroke-width:1.5;"/>
    <path clip-path="url(#pb7ee290e10)" d="M 314.002045 87.572231 
L 314.002045 73.196033 
" style="fill:none;stroke:#369083;stroke-width:1.5;"/>
    <path clip-path="url(#pb7ee290e10)" d="M 323.143545 87.572231 
L 323.143545 73.196033 
" style="fill:none;stroke:#369083;stroke-width:1.5;"/>
    <path clip-path="url(#pb7ee290e10)" d="M 337.51075 87.572231 
L 337.51075 73.196033 
" style="fill:none;stroke:#369083;stroke-width:1.5;"/>
    <path clip-path="url(#pb7ee290e10)" d="M 355.426667 87.572231 
L 355.426667 73.196033 
" style="fill:none;stroke:#369083;stroke-width:1.5;"/>
    <path clip-path="url(#pb7ee290e10)" d="M 356.35313 87.572231 
L 356.35313 73.196033 
" style="fill:none;stroke:#369083;stroke-width:1.5;"/>
    <path clip-path="url(#pb7ee290e10)" d="M 368.294099 87.572231 
L 368.294099 73.196033 
" style="fill:none;stroke:#369083;stroke-width:1.5;"/>
    <path clip-path="url(#pb7ee290e10)" d="M 370.077907 87.572231 
L 370.077907 73.196033 
" style="fill:none;stroke:#369083;stroke-width:1.5;"/>
   </g>
   <g id="LineCollection_10">
    <path clip-path="url(#pb7ee290e10)" d="M 91.353367 69.601983 
L 91.353367 55.225785 
" style="fill:none;stroke:#105c94;stroke-width:1.5;"/>
    <path clip-path="url(#pb7ee290e10)" d="M 91.52021 69.601983 
L 91.52021 55.225785 
" style="fill:none;stroke:#105c94;stroke-width:1.5;"/>
    <path clip-path="url(#pb7ee290e10)" d="M 102.319975 69.601983 
L 102.319975 55.225785 
" style="fill:none;stroke:#105c94;stroke-width:1.5;"/>
    <path clip-path="url(#pb7ee290e10)" d="M 149.648189 69.601983 
L 149.648189 55.225785 
" style="fill:none;stroke:#105c94;stroke-width:1.5;"/>
    <path clip-path="url(#pb7ee290e10)" d="M 150.091992 69.601983 
L 150.091992 55.225785 
" style="fill:none;stroke:#105c94;stroke-width:1.5;"/>
    <path clip-path="url(#pb7ee290e10)" d="M 150.0957 69.601983 
L 150.0957 55.225785 
" style="fill:none;stroke:#105c94;stroke-width:1.5;"/>
    <path clip-path="url(#pb7ee290e10)" d="M 153.474779 69.601983 
L 153.474779 55.225785 
" style="fill:none;stroke:#105c94;stroke-width:1.5;"/>
    <path clip-path="url(#pb7ee290e10)" d="M 184.047864 69.601983 
L 184.047864 55.225785 
" style="fill:none;stroke:#105c94;stroke-width:1.5;"/>
    <path clip-path="url(#pb7ee290e10)" d="M 186.68296 69.601983 
L 186.68296 55.225785 
" style="fill:none;stroke:#105c94;stroke-width:1.5;"/>
    <path clip-path="url(#pb7ee290e10)" d="M 202.644232 69.601983 
L 202.644232 55.225785 
" style="fill:none;stroke:#105c94;stroke-width:1.5;"/>
    <path clip-path="url(#pb7ee290e10)" d="M 207.852839 69.601983 
L 207.852839 55.225785 
" style="fill:none;stroke:#105c94;stroke-width:1.5;"/>
    <path clip-path="url(#pb7ee290e10)" d="M 212.239422 69.601983 
L 212.239422 55.225785 
" style="fill:none;stroke:#105c94;stroke-width:1.5;"/>
    <path clip-path="url(#pb7ee290e10)" d="M 218.451562 69.601983 
L 218.451562 55.225785 
" style="fill:none;stroke:#105c94;stroke-width:1.5;"/>
    <path clip-path="url(#pb7ee290e10)" d="M 279.309241 69.601983 
L 279.309241 55.225785 
" style="fill:none;stroke:#105c94;stroke-width:1.5;"/>
    <path clip-path="url(#pb7ee290e10)" d="M 286.42267 69.601983 
L 286.42267 55.225785 
" style="fill:none;stroke:#105c94;stroke-width:1.5;"/>
    <path clip-path="url(#pb7ee290e10)" d="M 303.403283 69.601983 
L 303.403283 55.225785 
" style="fill:none;stroke:#105c94;stroke-width:1.5;"/>
    <path clip-path="url(#pb7ee290e10)" d="M 303.684077 69.601983 
L 303.684077 55.225785 
" style="fill:none;stroke:#105c94;stroke-width:1.5;"/>
    <path clip-path="url(#pb7ee290e10)" d="M 315.356614 69.601983 
L 315.356614 55.225785 
" style="fill:none;stroke:#105c94;stroke-width:1.5;"/>
    <path clip-path="url(#pb7ee290e10)" d="M 319.342418 69.601983 
L 319.342418 55.225785 
" style="fill:none;stroke:#105c94;stroke-width:1.5;"/>
    <path clip-path="url(#pb7ee290e10)" d="M 338.032521 69.601983 
L 338.032521 55.225785 
" style="fill:none;stroke:#105c94;stroke-width:1.5;"/>
    <path clip-path="url(#pb7ee290e10)" d="M 347.004705 69.601983 
L 347.004705 55.225785 
" style="fill:none;stroke:#105c94;stroke-width:1.5;"/>
   </g>
   <g id="line2d_15"/>
   <g id="line2d_16"/>
   <g id="patch_3">
    <path d="M 54 252 
L 54 34.56 
" style="fill:none;stroke:#000000;stroke-linecap:square;stroke-linejoin:miter;stroke-width:0.8;"/>
   </g>
   <g id="patch_4">
    <path d="M 388.8 252 
L 388.8 34.56 
" style="fill:none;stroke:#000000;stroke-linecap:square;stroke-linejoin:miter;stroke-width:0.8;"/>
   </g>
   <g id="patch_5">
    <path d="M 54 252 
L 388.8 252 
" style="fill:none;stroke:#000000;stroke-linecap:square;stroke-linejoin:miter;stroke-width:0.8;"/>
   </g>
   <g id="patch_6">
    <path d="M 54 34.56 
L 388.8 34.56 
" style="fill:none;stroke:#000000;stroke-linecap:square;stroke-linejoin:miter;stroke-width:0.8;"/>
   </g>
  </g>
  <g id="text_17">
   <!-- Spike Raster Plot for 0.012 Hz -->
   <defs>
    <path d="M 44.390625 34.1875 
Q 47.5625 33.109375 50.5625 29.59375 
Q 53.5625 26.078125 56.59375 19.921875 
L 66.609375 0 
L 56 0 
L 46.6875 18.703125 
Q 43.0625 26.03125 39.671875 28.421875 
Q 36.28125 30.8125 30.421875 30.8125 
L 19.671875 30.8125 
L 19.671875 0 
L 9.8125 0 
L 9.8125 72.90625 
L 32.078125 72.90625 
Q 44.578125 72.90625 50.734375 67.671875 
Q 56.890625 62.453125 56.890625 51.90625 
Q 56.890625 45.015625 53.6875 40.46875 
Q 50.484375 35.9375 44.390625 34.1875 
z
M 19.671875 64.796875 
L 19.671875 38.921875 
L 32.078125 38.921875 
Q 39.203125 38.921875 42.84375 42.21875 
Q 46.484375 45.515625 46.484375 51.90625 
Q 46.484375 58.296875 42.84375 61.546875 
Q 39.203125 64.796875 32.078125 64.796875 
z
" id="DejaVuSans-82"/>
    <path d="M 18.3125 70.21875 
L 18.3125 54.6875 
L 36.8125 54.6875 
L 36.8125 47.703125 
L 18.3125 47.703125 
L 18.3125 18.015625 
Q 18.3125 11.328125 20.140625 9.421875 
Q 21.96875 7.515625 27.59375 7.515625 
L 36.8125 7.515625 
L 36.8125 0 
L 27.59375 0 
Q 17.1875 0 13.234375 3.875 
Q 9.28125 7.765625 9.28125 18.015625 
L 9.28125 47.703125 
L 2.6875 47.703125 
L 2.6875 54.6875 
L 9.28125 54.6875 
L 9.28125 70.21875 
z
" id="DejaVuSans-116"/>
    <path d="M 19.671875 64.796875 
L 19.671875 37.40625 
L 32.078125 37.40625 
Q 38.96875 37.40625 42.71875 40.96875 
Q 46.484375 44.53125 46.484375 51.125 
Q 46.484375 57.671875 42.71875 61.234375 
Q 38.96875 64.796875 32.078125 64.796875 
z
M 9.8125 72.90625 
L 32.078125 72.90625 
Q 44.34375 72.90625 50.609375 67.359375 
Q 56.890625 61.8125 56.890625 51.125 
Q 56.890625 40.328125 50.609375 34.8125 
Q 44.34375 29.296875 32.078125 29.296875 
L 19.671875 29.296875 
L 19.671875 0 
L 9.8125 0 
z
" id="DejaVuSans-80"/>
    <path d="M 30.609375 48.390625 
Q 23.390625 48.390625 19.1875 42.75 
Q 14.984375 37.109375 14.984375 27.296875 
Q 14.984375 17.484375 19.15625 11.84375 
Q 23.34375 6.203125 30.609375 6.203125 
Q 37.796875 6.203125 41.984375 11.859375 
Q 46.1875 17.53125 46.1875 27.296875 
Q 46.1875 37.015625 41.984375 42.703125 
Q 37.796875 48.390625 30.609375 48.390625 
z
M 30.609375 56 
Q 42.328125 56 49.015625 48.375 
Q 55.71875 40.765625 55.71875 27.296875 
Q 55.71875 13.875 49.015625 6.21875 
Q 42.328125 -1.421875 30.609375 -1.421875 
Q 18.84375 -1.421875 12.171875 6.21875 
Q 5.515625 13.875 5.515625 27.296875 
Q 5.515625 40.765625 12.171875 48.375 
Q 18.84375 56 30.609375 56 
z
" id="DejaVuSans-111"/>
    <path d="M 37.109375 75.984375 
L 37.109375 68.5 
L 28.515625 68.5 
Q 23.6875 68.5 21.796875 66.546875 
Q 19.921875 64.59375 19.921875 59.515625 
L 19.921875 54.6875 
L 34.71875 54.6875 
L 34.71875 47.703125 
L 19.921875 47.703125 
L 19.921875 0 
L 10.890625 0 
L 10.890625 47.703125 
L 2.296875 47.703125 
L 2.296875 54.6875 
L 10.890625 54.6875 
L 10.890625 58.5 
Q 10.890625 67.625 15.140625 71.796875 
Q 19.390625 75.984375 28.609375 75.984375 
z
" id="DejaVuSans-102"/>
    <path d="M 10.6875 12.40625 
L 21 12.40625 
L 21 0 
L 10.6875 0 
z
" id="DejaVuSans-46"/>
    <path d="M 9.8125 72.90625 
L 19.671875 72.90625 
L 19.671875 43.015625 
L 55.515625 43.015625 
L 55.515625 72.90625 
L 65.375 72.90625 
L 65.375 0 
L 55.515625 0 
L 55.515625 34.71875 
L 19.671875 34.71875 
L 19.671875 0 
L 9.8125 0 
z
" id="DejaVuSans-72"/>
    <path d="M 5.515625 54.6875 
L 48.1875 54.6875 
L 48.1875 46.484375 
L 14.40625 7.171875 
L 48.1875 7.171875 
L 48.1875 0 
L 4.296875 0 
L 4.296875 8.203125 
L 38.09375 47.515625 
L 5.515625 47.515625 
z
" id="DejaVuSans-122"/>
   </defs>
   <g transform="translate(126.140625 14.878125)scale(0.12 -0.12)">
    <use xlink:href="#DejaVuSans-83"/>
    <use x="63.476562" xlink:href="#DejaVuSans-112"/>
    <use x="126.953125" xlink:href="#DejaVuSans-105"/>
    <use x="154.736328" xlink:href="#DejaVuSans-107"/>
    <use x="212.599609" xlink:href="#DejaVuSans-101"/>
    <use x="274.123047" xlink:href="#DejaVuSans-32"/>
    <use x="305.910156" xlink:href="#DejaVuSans-82"/>
    <use x="375.361328" xlink:href="#DejaVuSans-97"/>
    <use x="436.640625" xlink:href="#DejaVuSans-115"/>
    <use x="488.740234" xlink:href="#DejaVuSans-116"/>
    <use x="527.949219" xlink:href="#DejaVuSans-101"/>
    <use x="589.472656" xlink:href="#DejaVuSans-114"/>
    <use x="630.585938" xlink:href="#DejaVuSans-32"/>
    <use x="662.373047" xlink:href="#DejaVuSans-80"/>
    <use x="722.675781" xlink:href="#DejaVuSans-108"/>
    <use x="750.458984" xlink:href="#DejaVuSans-111"/>
    <use x="811.640625" xlink:href="#DejaVuSans-116"/>
    <use x="850.849609" xlink:href="#DejaVuSans-32"/>
    <use x="882.636719" xlink:href="#DejaVuSans-102"/>
    <use x="917.841797" xlink:href="#DejaVuSans-111"/>
    <use x="979.023438" xlink:href="#DejaVuSans-114"/>
    <use x="1020.136719" xlink:href="#DejaVuSans-32"/>
    <use x="1051.923828" xlink:href="#DejaVuSans-48"/>
    <use x="1115.546875" xlink:href="#DejaVuSans-46"/>
    <use x="1147.333984" xlink:href="#DejaVuSans-48"/>
    <use x="1210.957031" xlink:href="#DejaVuSans-49"/>
    <use x="1274.580078" xlink:href="#DejaVuSans-50"/>
    <use x="1338.203125" xlink:href="#DejaVuSans-32"/>
    <use x="1369.990234" xlink:href="#DejaVuSans-72"/>
    <use x="1445.185547" xlink:href="#DejaVuSans-122"/>
   </g>
  </g>
 </g>
 <defs>
  <clipPath id="pb7ee290e10">
   <rect height="217.44" width="334.8" x="54" y="34.56"/>
  </clipPath>
 </defs>
</svg>
