<?xml version="1.0" encoding="utf-8" standalone="no"?>
<!DOCTYPE svg PUBLIC "-//W3C//DTD SVG 1.1//EN"
  "http://www.w3.org/Graphics/SVG/1.1/DTD/svg11.dtd">
<!-- Created with matplotlib (http://matplotlib.org/) -->
<svg height="345.6pt" version="1.1" viewBox="0 0 460.8 345.6" width="460.8pt" xmlns="http://www.w3.org/2000/svg" xmlns:xlink="http://www.w3.org/1999/xlink">
 <defs>
  <style type="text/css">
*{stroke-linecap:butt;stroke-linejoin:round;}
  </style>
 </defs>
 <g id="figure_1">
  <g id="patch_1">
   <path d="M 0 345.6 
L 460.8 345.6 
L 460.8 0 
L 0 0 
z
" style="fill:#ffffff;"/>
  </g>
  <g id="axes_1">
   <g id="patch_2">
    <path d="M 57.6 307.584 
L 414.72 307.584 
L 414.72 41.472 
L 57.6 41.472 
z
" style="fill:#ffffff;"/>
   </g>
   <g id="matplotlib.axis_1">
    <g id="xtick_1">
     <g id="line2d_1">
      <defs>
       <path d="M 0 0 
L 0 3.5 
" id="mc704d3784c" style="stroke:#000000;stroke-width:0.8;"/>
      </defs>
      <g>
       <use style="stroke:#000000;stroke-width:0.8;" x="73.832727" xlink:href="#mc704d3784c" y="307.584"/>
      </g>
     </g>
     <g id="text_1">
      <!-- 0 -->
      <defs>
       <path d="M 31.78125 66.40625 
Q 24.171875 66.40625 20.328125 58.90625 
Q 16.5 51.421875 16.5 36.375 
Q 16.5 21.390625 20.328125 13.890625 
Q 24.171875 6.390625 31.78125 6.390625 
Q 39.453125 6.390625 43.28125 13.890625 
Q 47.125 21.390625 47.125 36.375 
Q 47.125 51.421875 43.28125 58.90625 
Q 39.453125 66.40625 31.78125 66.40625 
z
M 31.78125 74.21875 
Q 44.046875 74.21875 50.515625 64.515625 
Q 56.984375 54.828125 56.984375 36.375 
Q 56.984375 17.96875 50.515625 8.265625 
Q 44.046875 -1.421875 31.78125 -1.421875 
Q 19.53125 -1.421875 13.0625 8.265625 
Q 6.59375 17.96875 6.59375 36.375 
Q 6.59375 54.828125 13.0625 64.515625 
Q 19.53125 74.21875 31.78125 74.21875 
z
" id="DejaVuSans-30"/>
      </defs>
      <g transform="translate(70.651477 322.182437)scale(0.1 -0.1)">
       <use xlink:href="#DejaVuSans-30"/>
      </g>
     </g>
    </g>
    <g id="xtick_2">
     <g id="line2d_2">
      <g>
       <use style="stroke:#000000;stroke-width:0.8;" x="117.148877" xlink:href="#mc704d3784c" y="307.584"/>
      </g>
     </g>
     <g id="text_2">
      <!-- 200 -->
      <defs>
       <path d="M 19.1875 8.296875 
L 53.609375 8.296875 
L 53.609375 0 
L 7.328125 0 
L 7.328125 8.296875 
Q 12.9375 14.109375 22.625 23.890625 
Q 32.328125 33.6875 34.8125 36.53125 
Q 39.546875 41.84375 41.421875 45.53125 
Q 43.3125 49.21875 43.3125 52.78125 
Q 43.3125 58.59375 39.234375 62.25 
Q 35.15625 65.921875 28.609375 65.921875 
Q 23.96875 65.921875 18.8125 64.3125 
Q 13.671875 62.703125 7.8125 59.421875 
L 7.8125 69.390625 
Q 13.765625 71.78125 18.9375 73 
Q 24.125 74.21875 28.421875 74.21875 
Q 39.75 74.21875 46.484375 68.546875 
Q 53.21875 62.890625 53.21875 53.421875 
Q 53.21875 48.921875 51.53125 44.890625 
Q 49.859375 40.875 45.40625 35.40625 
Q 44.1875 33.984375 37.640625 27.21875 
Q 31.109375 20.453125 19.1875 8.296875 
z
" id="DejaVuSans-32"/>
      </defs>
      <g transform="translate(107.605127 322.182437)scale(0.1 -0.1)">
       <use xlink:href="#DejaVuSans-32"/>
       <use x="63.623047" xlink:href="#DejaVuSans-30"/>
       <use x="127.246094" xlink:href="#DejaVuSans-30"/>
      </g>
     </g>
    </g>
    <g id="xtick_3">
     <g id="line2d_3">
      <g>
       <use style="stroke:#000000;stroke-width:0.8;" x="160.465028" xlink:href="#mc704d3784c" y="307.584"/>
      </g>
     </g>
     <g id="text_3">
      <!-- 400 -->
      <defs>
       <path d="M 37.796875 64.3125 
L 12.890625 25.390625 
L 37.796875 25.390625 
z
M 35.203125 72.90625 
L 47.609375 72.90625 
L 47.609375 25.390625 
L 58.015625 25.390625 
L 58.015625 17.1875 
L 47.609375 17.1875 
L 47.609375 0 
L 37.796875 0 
L 37.796875 17.1875 
L 4.890625 17.1875 
L 4.890625 26.703125 
z
" id="DejaVuSans-34"/>
      </defs>
      <g transform="translate(150.921278 322.182437)scale(0.1 -0.1)">
       <use xlink:href="#DejaVuSans-34"/>
       <use x="63.623047" xlink:href="#DejaVuSans-30"/>
       <use x="127.246094" xlink:href="#DejaVuSans-30"/>
      </g>
     </g>
    </g>
    <g id="xtick_4">
     <g id="line2d_4">
      <g>
       <use style="stroke:#000000;stroke-width:0.8;" x="203.781178" xlink:href="#mc704d3784c" y="307.584"/>
      </g>
     </g>
     <g id="text_4">
      <!-- 600 -->
      <defs>
       <path d="M 33.015625 40.375 
Q 26.375 40.375 22.484375 35.828125 
Q 18.609375 31.296875 18.609375 23.390625 
Q 18.609375 15.53125 22.484375 10.953125 
Q 26.375 6.390625 33.015625 6.390625 
Q 39.65625 6.390625 43.53125 10.953125 
Q 47.40625 15.53125 47.40625 23.390625 
Q 47.40625 31.296875 43.53125 35.828125 
Q 39.65625 40.375 33.015625 40.375 
z
M 52.59375 71.296875 
L 52.59375 62.3125 
Q 48.875 64.0625 45.09375 64.984375 
Q 41.3125 65.921875 37.59375 65.921875 
Q 27.828125 65.921875 22.671875 59.328125 
Q 17.53125 52.734375 16.796875 39.40625 
Q 19.671875 43.65625 24.015625 45.921875 
Q 28.375 48.1875 33.59375 48.1875 
Q 44.578125 48.1875 50.953125 41.515625 
Q 57.328125 34.859375 57.328125 23.390625 
Q 57.328125 12.15625 50.6875 5.359375 
Q 44.046875 -1.421875 33.015625 -1.421875 
Q 20.359375 -1.421875 13.671875 8.265625 
Q 6.984375 17.96875 6.984375 36.375 
Q 6.984375 53.65625 15.1875 63.9375 
Q 23.390625 74.21875 37.203125 74.21875 
Q 40.921875 74.21875 44.703125 73.484375 
Q 48.484375 72.75 52.59375 71.296875 
z
" id="DejaVuSans-36"/>
      </defs>
      <g transform="translate(194.237428 322.182437)scale(0.1 -0.1)">
       <use xlink:href="#DejaVuSans-36"/>
       <use x="63.623047" xlink:href="#DejaVuSans-30"/>
       <use x="127.246094" xlink:href="#DejaVuSans-30"/>
      </g>
     </g>
    </g>
    <g id="xtick_5">
     <g id="line2d_5">
      <g>
       <use style="stroke:#000000;stroke-width:0.8;" x="247.097328" xlink:href="#mc704d3784c" y="307.584"/>
      </g>
     </g>
     <g id="text_5">
      <!-- 800 -->
      <defs>
       <path d="M 31.78125 34.625 
Q 24.75 34.625 20.71875 30.859375 
Q 16.703125 27.09375 16.703125 20.515625 
Q 16.703125 13.921875 20.71875 10.15625 
Q 24.75 6.390625 31.78125 6.390625 
Q 38.8125 6.390625 42.859375 10.171875 
Q 46.921875 13.96875 46.921875 20.515625 
Q 46.921875 27.09375 42.890625 30.859375 
Q 38.875 34.625 31.78125 34.625 
z
M 21.921875 38.8125 
Q 15.578125 40.375 12.03125 44.71875 
Q 8.5 49.078125 8.5 55.328125 
Q 8.5 64.0625 14.71875 69.140625 
Q 20.953125 74.21875 31.78125 74.21875 
Q 42.671875 74.21875 48.875 69.140625 
Q 55.078125 64.0625 55.078125 55.328125 
Q 55.078125 49.078125 51.53125 44.71875 
Q 48 40.375 41.703125 38.8125 
Q 48.828125 37.15625 52.796875 32.3125 
Q 56.78125 27.484375 56.78125 20.515625 
Q 56.78125 9.90625 50.3125 4.234375 
Q 43.84375 -1.421875 31.78125 -1.421875 
Q 19.734375 -1.421875 13.25 4.234375 
Q 6.78125 9.90625 6.78125 20.515625 
Q 6.78125 27.484375 10.78125 32.3125 
Q 14.796875 37.15625 21.921875 38.8125 
z
M 18.3125 54.390625 
Q 18.3125 48.734375 21.84375 45.5625 
Q 25.390625 42.390625 31.78125 42.390625 
Q 38.140625 42.390625 41.71875 45.5625 
Q 45.3125 48.734375 45.3125 54.390625 
Q 45.3125 60.0625 41.71875 63.234375 
Q 38.140625 66.40625 31.78125 66.40625 
Q 25.390625 66.40625 21.84375 63.234375 
Q 18.3125 60.0625 18.3125 54.390625 
z
" id="DejaVuSans-38"/>
      </defs>
      <g transform="translate(237.553578 322.182437)scale(0.1 -0.1)">
       <use xlink:href="#DejaVuSans-38"/>
       <use x="63.623047" xlink:href="#DejaVuSans-30"/>
       <use x="127.246094" xlink:href="#DejaVuSans-30"/>
      </g>
     </g>
    </g>
    <g id="xtick_6">
     <g id="line2d_6">
      <g>
       <use style="stroke:#000000;stroke-width:0.8;" x="290.413478" xlink:href="#mc704d3784c" y="307.584"/>
      </g>
     </g>
     <g id="text_6">
      <!-- 1000 -->
      <defs>
       <path d="M 12.40625 8.296875 
L 28.515625 8.296875 
L 28.515625 63.921875 
L 10.984375 60.40625 
L 10.984375 69.390625 
L 28.421875 72.90625 
L 38.28125 72.90625 
L 38.28125 8.296875 
L 54.390625 8.296875 
L 54.390625 0 
L 12.40625 0 
z
" id="DejaVuSans-31"/>
      </defs>
      <g transform="translate(277.688478 322.182437)scale(0.1 -0.1)">
       <use xlink:href="#DejaVuSans-31"/>
       <use x="63.623047" xlink:href="#DejaVuSans-30"/>
       <use x="127.246094" xlink:href="#DejaVuSans-30"/>
       <use x="190.869141" xlink:href="#DejaVuSans-30"/>
      </g>
     </g>
    </g>
    <g id="xtick_7">
     <g id="line2d_7">
      <g>
       <use style="stroke:#000000;stroke-width:0.8;" x="333.729628" xlink:href="#mc704d3784c" y="307.584"/>
      </g>
     </g>
     <g id="text_7">
      <!-- 1200 -->
      <g transform="translate(321.004628 322.182437)scale(0.1 -0.1)">
       <use xlink:href="#DejaVuSans-31"/>
       <use x="63.623047" xlink:href="#DejaVuSans-32"/>
       <use x="127.246094" xlink:href="#DejaVuSans-30"/>
       <use x="190.869141" xlink:href="#DejaVuSans-30"/>
      </g>
     </g>
    </g>
    <g id="xtick_8">
     <g id="line2d_8">
      <g>
       <use style="stroke:#000000;stroke-width:0.8;" x="377.045778" xlink:href="#mc704d3784c" y="307.584"/>
      </g>
     </g>
     <g id="text_8">
      <!-- 1400 -->
      <g transform="translate(364.320778 322.182437)scale(0.1 -0.1)">
       <use xlink:href="#DejaVuSans-31"/>
       <use x="63.623047" xlink:href="#DejaVuSans-34"/>
       <use x="127.246094" xlink:href="#DejaVuSans-30"/>
       <use x="190.869141" xlink:href="#DejaVuSans-30"/>
      </g>
     </g>
    </g>
    <g id="text_9">
     <!-- Time (sec) -->
     <defs>
      <path d="M -0.296875 72.90625 
L 61.375 72.90625 
L 61.375 64.59375 
L 35.5 64.59375 
L 35.5 0 
L 25.59375 0 
L 25.59375 64.59375 
L -0.296875 64.59375 
z
" id="DejaVuSans-54"/>
      <path d="M 9.421875 54.6875 
L 18.40625 54.6875 
L 18.40625 0 
L 9.421875 0 
z
M 9.421875 75.984375 
L 18.40625 75.984375 
L 18.40625 64.59375 
L 9.421875 64.59375 
z
" id="DejaVuSans-69"/>
      <path d="M 52 44.1875 
Q 55.375 50.25 60.0625 53.125 
Q 64.75 56 71.09375 56 
Q 79.640625 56 84.28125 50.015625 
Q 88.921875 44.046875 88.921875 33.015625 
L 88.921875 0 
L 79.890625 0 
L 79.890625 32.71875 
Q 79.890625 40.578125 77.09375 44.375 
Q 74.3125 48.1875 68.609375 48.1875 
Q 61.625 48.1875 57.5625 43.546875 
Q 53.515625 38.921875 53.515625 30.90625 
L 53.515625 0 
L 44.484375 0 
L 44.484375 32.71875 
Q 44.484375 40.625 41.703125 44.40625 
Q 38.921875 48.1875 33.109375 48.1875 
Q 26.21875 48.1875 22.15625 43.53125 
Q 18.109375 38.875 18.109375 30.90625 
L 18.109375 0 
L 9.078125 0 
L 9.078125 54.6875 
L 18.109375 54.6875 
L 18.109375 46.1875 
Q 21.1875 51.21875 25.484375 53.609375 
Q 29.78125 56 35.6875 56 
Q 41.65625 56 45.828125 52.96875 
Q 50 49.953125 52 44.1875 
z
" id="DejaVuSans-6d"/>
      <path d="M 56.203125 29.59375 
L 56.203125 25.203125 
L 14.890625 25.203125 
Q 15.484375 15.921875 20.484375 11.0625 
Q 25.484375 6.203125 34.421875 6.203125 
Q 39.59375 6.203125 44.453125 7.46875 
Q 49.3125 8.734375 54.109375 11.28125 
L 54.109375 2.78125 
Q 49.265625 0.734375 44.1875 -0.34375 
Q 39.109375 -1.421875 33.890625 -1.421875 
Q 20.796875 -1.421875 13.15625 6.1875 
Q 5.515625 13.8125 5.515625 26.8125 
Q 5.515625 40.234375 12.765625 48.109375 
Q 20.015625 56 32.328125 56 
Q 43.359375 56 49.78125 48.890625 
Q 56.203125 41.796875 56.203125 29.59375 
z
M 47.21875 32.234375 
Q 47.125 39.59375 43.09375 43.984375 
Q 39.0625 48.390625 32.421875 48.390625 
Q 24.90625 48.390625 20.390625 44.140625 
Q 15.875 39.890625 15.1875 32.171875 
z
" id="DejaVuSans-65"/>
      <path id="DejaVuSans-20"/>
      <path d="M 31 75.875 
Q 24.46875 64.65625 21.28125 53.65625 
Q 18.109375 42.671875 18.109375 31.390625 
Q 18.109375 20.125 21.3125 9.0625 
Q 24.515625 -2 31 -13.1875 
L 23.1875 -13.1875 
Q 15.875 -1.703125 12.234375 9.375 
Q 8.59375 20.453125 8.59375 31.390625 
Q 8.59375 42.28125 12.203125 53.3125 
Q 15.828125 64.359375 23.1875 75.875 
z
" id="DejaVuSans-28"/>
      <path d="M 44.28125 53.078125 
L 44.28125 44.578125 
Q 40.484375 46.53125 36.375 47.5 
Q 32.28125 48.484375 27.875 48.484375 
Q 21.1875 48.484375 17.84375 46.4375 
Q 14.5 44.390625 14.5 40.28125 
Q 14.5 37.15625 16.890625 35.375 
Q 19.28125 33.59375 26.515625 31.984375 
L 29.59375 31.296875 
Q 39.15625 29.25 43.1875 25.515625 
Q 47.21875 21.78125 47.21875 15.09375 
Q 47.21875 7.46875 41.1875 3.015625 
Q 35.15625 -1.421875 24.609375 -1.421875 
Q 20.21875 -1.421875 15.453125 -0.5625 
Q 10.6875 0.296875 5.421875 2 
L 5.421875 11.28125 
Q 10.40625 8.6875 15.234375 7.390625 
Q 20.0625 6.109375 24.8125 6.109375 
Q 31.15625 6.109375 34.5625 8.28125 
Q 37.984375 10.453125 37.984375 14.40625 
Q 37.984375 18.0625 35.515625 20.015625 
Q 33.0625 21.96875 24.703125 23.78125 
L 21.578125 24.515625 
Q 13.234375 26.265625 9.515625 29.90625 
Q 5.8125 33.546875 5.8125 39.890625 
Q 5.8125 47.609375 11.28125 51.796875 
Q 16.75 56 26.8125 56 
Q 31.78125 56 36.171875 55.265625 
Q 40.578125 54.546875 44.28125 53.078125 
z
" id="DejaVuSans-73"/>
      <path d="M 48.78125 52.59375 
L 48.78125 44.1875 
Q 44.96875 46.296875 41.140625 47.34375 
Q 37.3125 48.390625 33.40625 48.390625 
Q 24.65625 48.390625 19.8125 42.84375 
Q 14.984375 37.3125 14.984375 27.296875 
Q 14.984375 17.28125 19.8125 11.734375 
Q 24.65625 6.203125 33.40625 6.203125 
Q 37.3125 6.203125 41.140625 7.25 
Q 44.96875 8.296875 48.78125 10.40625 
L 48.78125 2.09375 
Q 45.015625 0.34375 40.984375 -0.53125 
Q 36.96875 -1.421875 32.421875 -1.421875 
Q 20.0625 -1.421875 12.78125 6.34375 
Q 5.515625 14.109375 5.515625 27.296875 
Q 5.515625 40.671875 12.859375 48.328125 
Q 20.21875 56 33.015625 56 
Q 37.15625 56 41.109375 55.140625 
Q 45.0625 54.296875 48.78125 52.59375 
z
" id="DejaVuSans-63"/>
      <path d="M 8.015625 75.875 
L 15.828125 75.875 
Q 23.140625 64.359375 26.78125 53.3125 
Q 30.421875 42.28125 30.421875 31.390625 
Q 30.421875 20.453125 26.78125 9.375 
Q 23.140625 -1.703125 15.828125 -13.1875 
L 8.015625 -13.1875 
Q 14.5 -2 17.703125 9.0625 
Q 20.90625 20.125 20.90625 31.390625 
Q 20.90625 42.671875 17.703125 53.65625 
Q 14.5 64.65625 8.015625 75.875 
z
" id="DejaVuSans-29"/>
     </defs>
     <g transform="translate(209.851406 335.860562)scale(0.1 -0.1)">
      <use xlink:href="#DejaVuSans-54"/>
      <use x="61.037109" xlink:href="#DejaVuSans-69"/>
      <use x="88.820312" xlink:href="#DejaVuSans-6d"/>
      <use x="186.232422" xlink:href="#DejaVuSans-65"/>
      <use x="247.755859" xlink:href="#DejaVuSans-20"/>
      <use x="279.542969" xlink:href="#DejaVuSans-28"/>
      <use x="318.556641" xlink:href="#DejaVuSans-73"/>
      <use x="370.65625" xlink:href="#DejaVuSans-65"/>
      <use x="432.179688" xlink:href="#DejaVuSans-63"/>
      <use x="487.160156" xlink:href="#DejaVuSans-29"/>
     </g>
    </g>
   </g>
   <g id="matplotlib.axis_2">
    <g id="ytick_1">
     <g id="line2d_9">
      <defs>
       <path d="M 0 0 
L -3.5 0 
" id="m8fab766664" style="stroke:#000000;stroke-width:0.8;"/>
      </defs>
      <g>
       <use style="stroke:#000000;stroke-width:0.8;" x="57.6" xlink:href="#m8fab766664" y="295.488"/>
      </g>
     </g>
     <g id="text_10">
      <!-- 0 -->
      <g transform="translate(44.2375 299.287219)scale(0.1 -0.1)">
       <use xlink:href="#DejaVuSans-30"/>
      </g>
     </g>
    </g>
    <g id="ytick_2">
     <g id="line2d_10">
      <g>
       <use style="stroke:#000000;stroke-width:0.8;" x="57.6" xlink:href="#m8fab766664" y="255.168"/>
      </g>
     </g>
     <g id="text_11">
      <!-- 2 -->
      <g transform="translate(44.2375 258.967219)scale(0.1 -0.1)">
       <use xlink:href="#DejaVuSans-32"/>
      </g>
     </g>
    </g>
    <g id="ytick_3">
     <g id="line2d_11">
      <g>
       <use style="stroke:#000000;stroke-width:0.8;" x="57.6" xlink:href="#m8fab766664" y="214.848"/>
      </g>
     </g>
     <g id="text_12">
      <!-- 4 -->
      <g transform="translate(44.2375 218.647219)scale(0.1 -0.1)">
       <use xlink:href="#DejaVuSans-34"/>
      </g>
     </g>
    </g>
    <g id="ytick_4">
     <g id="line2d_12">
      <g>
       <use style="stroke:#000000;stroke-width:0.8;" x="57.6" xlink:href="#m8fab766664" y="174.528"/>
      </g>
     </g>
     <g id="text_13">
      <!-- 6 -->
      <g transform="translate(44.2375 178.327219)scale(0.1 -0.1)">
       <use xlink:href="#DejaVuSans-36"/>
      </g>
     </g>
    </g>
    <g id="ytick_5">
     <g id="line2d_13">
      <g>
       <use style="stroke:#000000;stroke-width:0.8;" x="57.6" xlink:href="#m8fab766664" y="134.208"/>
      </g>
     </g>
     <g id="text_14">
      <!-- 8 -->
      <g transform="translate(44.2375 138.007219)scale(0.1 -0.1)">
       <use xlink:href="#DejaVuSans-38"/>
      </g>
     </g>
    </g>
    <g id="ytick_6">
     <g id="line2d_14">
      <g>
       <use style="stroke:#000000;stroke-width:0.8;" x="57.6" xlink:href="#m8fab766664" y="93.888"/>
      </g>
     </g>
     <g id="text_15">
      <!-- 10 -->
      <g transform="translate(37.875 97.687219)scale(0.1 -0.1)">
       <use xlink:href="#DejaVuSans-31"/>
       <use x="63.623047" xlink:href="#DejaVuSans-30"/>
      </g>
     </g>
    </g>
    <g id="ytick_7">
     <g id="line2d_15">
      <g>
       <use style="stroke:#000000;stroke-width:0.8;" x="57.6" xlink:href="#m8fab766664" y="53.568"/>
      </g>
     </g>
     <g id="text_16">
      <!-- 12 -->
      <g transform="translate(37.875 57.367219)scale(0.1 -0.1)">
       <use xlink:href="#DejaVuSans-31"/>
       <use x="63.623047" xlink:href="#DejaVuSans-32"/>
      </g>
     </g>
    </g>
    <g id="text_17">
     <!-- Spike Train Index -->
     <defs>
      <path d="M 53.515625 70.515625 
L 53.515625 60.890625 
Q 47.90625 63.578125 42.921875 64.890625 
Q 37.9375 66.21875 33.296875 66.21875 
Q 25.25 66.21875 20.875 63.09375 
Q 16.5 59.96875 16.5 54.203125 
Q 16.5 49.359375 19.40625 46.890625 
Q 22.3125 44.4375 30.421875 42.921875 
L 36.375 41.703125 
Q 47.40625 39.59375 52.65625 34.296875 
Q 57.90625 29 57.90625 20.125 
Q 57.90625 9.515625 50.796875 4.046875 
Q 43.703125 -1.421875 29.984375 -1.421875 
Q 24.8125 -1.421875 18.96875 -0.25 
Q 13.140625 0.921875 6.890625 3.21875 
L 6.890625 13.375 
Q 12.890625 10.015625 18.65625 8.296875 
Q 24.421875 6.59375 29.984375 6.59375 
Q 38.421875 6.59375 43.015625 9.90625 
Q 47.609375 13.234375 47.609375 19.390625 
Q 47.609375 24.75 44.3125 27.78125 
Q 41.015625 30.8125 33.5 32.328125 
L 27.484375 33.5 
Q 16.453125 35.6875 11.515625 40.375 
Q 6.59375 45.0625 6.59375 53.421875 
Q 6.59375 63.09375 13.40625 68.65625 
Q 20.21875 74.21875 32.171875 74.21875 
Q 37.3125 74.21875 42.625 73.28125 
Q 47.953125 72.359375 53.515625 70.515625 
z
" id="DejaVuSans-53"/>
      <path d="M 18.109375 8.203125 
L 18.109375 -20.796875 
L 9.078125 -20.796875 
L 9.078125 54.6875 
L 18.109375 54.6875 
L 18.109375 46.390625 
Q 20.953125 51.265625 25.265625 53.625 
Q 29.59375 56 35.59375 56 
Q 45.5625 56 51.78125 48.09375 
Q 58.015625 40.1875 58.015625 27.296875 
Q 58.015625 14.40625 51.78125 6.484375 
Q 45.5625 -1.421875 35.59375 -1.421875 
Q 29.59375 -1.421875 25.265625 0.953125 
Q 20.953125 3.328125 18.109375 8.203125 
z
M 48.6875 27.296875 
Q 48.6875 37.203125 44.609375 42.84375 
Q 40.53125 48.484375 33.40625 48.484375 
Q 26.265625 48.484375 22.1875 42.84375 
Q 18.109375 37.203125 18.109375 27.296875 
Q 18.109375 17.390625 22.1875 11.75 
Q 26.265625 6.109375 33.40625 6.109375 
Q 40.53125 6.109375 44.609375 11.75 
Q 48.6875 17.390625 48.6875 27.296875 
z
" id="DejaVuSans-70"/>
      <path d="M 9.078125 75.984375 
L 18.109375 75.984375 
L 18.109375 31.109375 
L 44.921875 54.6875 
L 56.390625 54.6875 
L 27.390625 29.109375 
L 57.625 0 
L 45.90625 0 
L 18.109375 26.703125 
L 18.109375 0 
L 9.078125 0 
z
" id="DejaVuSans-6b"/>
      <path d="M 41.109375 46.296875 
Q 39.59375 47.171875 37.8125 47.578125 
Q 36.03125 48 33.890625 48 
Q 26.265625 48 22.1875 43.046875 
Q 18.109375 38.09375 18.109375 28.8125 
L 18.109375 0 
L 9.078125 0 
L 9.078125 54.6875 
L 18.109375 54.6875 
L 18.109375 46.1875 
Q 20.953125 51.171875 25.484375 53.578125 
Q 30.03125 56 36.53125 56 
Q 37.453125 56 38.578125 55.875 
Q 39.703125 55.765625 41.0625 55.515625 
z
" id="DejaVuSans-72"/>
      <path d="M 34.28125 27.484375 
Q 23.390625 27.484375 19.1875 25 
Q 14.984375 22.515625 14.984375 16.5 
Q 14.984375 11.71875 18.140625 8.90625 
Q 21.296875 6.109375 26.703125 6.109375 
Q 34.1875 6.109375 38.703125 11.40625 
Q 43.21875 16.703125 43.21875 25.484375 
L 43.21875 27.484375 
z
M 52.203125 31.203125 
L 52.203125 0 
L 43.21875 0 
L 43.21875 8.296875 
Q 40.140625 3.328125 35.546875 0.953125 
Q 30.953125 -1.421875 24.3125 -1.421875 
Q 15.921875 -1.421875 10.953125 3.296875 
Q 6 8.015625 6 15.921875 
Q 6 25.140625 12.171875 29.828125 
Q 18.359375 34.515625 30.609375 34.515625 
L 43.21875 34.515625 
L 43.21875 35.40625 
Q 43.21875 41.609375 39.140625 45 
Q 35.0625 48.390625 27.6875 48.390625 
Q 23 48.390625 18.546875 47.265625 
Q 14.109375 46.140625 10.015625 43.890625 
L 10.015625 52.203125 
Q 14.9375 54.109375 19.578125 55.046875 
Q 24.21875 56 28.609375 56 
Q 40.484375 56 46.34375 49.84375 
Q 52.203125 43.703125 52.203125 31.203125 
z
" id="DejaVuSans-61"/>
      <path d="M 54.890625 33.015625 
L 54.890625 0 
L 45.90625 0 
L 45.90625 32.71875 
Q 45.90625 40.484375 42.875 44.328125 
Q 39.84375 48.1875 33.796875 48.1875 
Q 26.515625 48.1875 22.3125 43.546875 
Q 18.109375 38.921875 18.109375 30.90625 
L 18.109375 0 
L 9.078125 0 
L 9.078125 54.6875 
L 18.109375 54.6875 
L 18.109375 46.1875 
Q 21.34375 51.125 25.703125 53.5625 
Q 30.078125 56 35.796875 56 
Q 45.21875 56 50.046875 50.171875 
Q 54.890625 44.34375 54.890625 33.015625 
z
" id="DejaVuSans-6e"/>
      <path d="M 9.8125 72.90625 
L 19.671875 72.90625 
L 19.671875 0 
L 9.8125 0 
z
" id="DejaVuSans-49"/>
      <path d="M 45.40625 46.390625 
L 45.40625 75.984375 
L 54.390625 75.984375 
L 54.390625 0 
L 45.40625 0 
L 45.40625 8.203125 
Q 42.578125 3.328125 38.25 0.953125 
Q 33.9375 -1.421875 27.875 -1.421875 
Q 17.96875 -1.421875 11.734375 6.484375 
Q 5.515625 14.40625 5.515625 27.296875 
Q 5.515625 40.1875 11.734375 48.09375 
Q 17.96875 56 27.875 56 
Q 33.9375 56 38.25 53.625 
Q 42.578125 51.265625 45.40625 46.390625 
z
M 14.796875 27.296875 
Q 14.796875 17.390625 18.875 11.75 
Q 22.953125 6.109375 30.078125 6.109375 
Q 37.203125 6.109375 41.296875 11.75 
Q 45.40625 17.390625 45.40625 27.296875 
Q 45.40625 37.203125 41.296875 42.84375 
Q 37.203125 48.484375 30.078125 48.484375 
Q 22.953125 48.484375 18.875 42.84375 
Q 14.796875 37.203125 14.796875 27.296875 
z
" id="DejaVuSans-64"/>
      <path d="M 54.890625 54.6875 
L 35.109375 28.078125 
L 55.90625 0 
L 45.3125 0 
L 29.390625 21.484375 
L 13.484375 0 
L 2.875 0 
L 24.125 28.609375 
L 4.6875 54.6875 
L 15.28125 54.6875 
L 29.78125 35.203125 
L 44.28125 54.6875 
z
" id="DejaVuSans-78"/>
     </defs>
     <g transform="translate(31.795312 217.986594)rotate(-90)scale(0.1 -0.1)">
      <use xlink:href="#DejaVuSans-53"/>
      <use x="63.476562" xlink:href="#DejaVuSans-70"/>
      <use x="126.953125" xlink:href="#DejaVuSans-69"/>
      <use x="154.736328" xlink:href="#DejaVuSans-6b"/>
      <use x="212.599609" xlink:href="#DejaVuSans-65"/>
      <use x="274.123047" xlink:href="#DejaVuSans-20"/>
      <use x="305.910156" xlink:href="#DejaVuSans-54"/>
      <use x="366.775391" xlink:href="#DejaVuSans-72"/>
      <use x="407.888672" xlink:href="#DejaVuSans-61"/>
      <use x="469.167969" xlink:href="#DejaVuSans-69"/>
      <use x="496.951172" xlink:href="#DejaVuSans-6e"/>
      <use x="560.330078" xlink:href="#DejaVuSans-20"/>
      <use x="592.117188" xlink:href="#DejaVuSans-49"/>
      <use x="621.609375" xlink:href="#DejaVuSans-6e"/>
      <use x="684.988281" xlink:href="#DejaVuSans-64"/>
      <use x="748.464844" xlink:href="#DejaVuSans-65"/>
      <use x="809.972656" xlink:href="#DejaVuSans-78"/>
     </g>
    </g>
   </g>
   <g id="line2d_16"/>
   <g id="line2d_17">
    <path clip-path="url(#p9cf9766619)" d="M 73.832727 275.328 
L 74.049308 275.328 
L 89.767721 275.328 
L 94.661973 275.328 
L 100.875459 275.328 
L 128.615768 275.328 
L 140.733853 275.328 
L 166.632968 275.328 
L 183.577319 275.328 
L 196.155657 275.328 
L 202.272349 275.328 
L 244.638734 275.328 
L 279.272513 275.328 
L 282.933987 275.328 
L 308.599379 275.328 
L 359.044035 275.328 
L 395.55197 275.328 
L 397.220279 275.328 
" style="fill:none;stroke:#a91227;stroke-linecap:square;stroke-width:1.5;"/>
    <defs>
     <path d="M 0 5 
C 1.326016 5 2.597899 4.473168 3.535534 3.535534 
C 4.473168 2.597899 5 1.326016 5 0 
C 5 -1.326016 4.473168 -2.597899 3.535534 -3.535534 
C 2.597899 -4.473168 1.326016 -5 0 -5 
C -1.326016 -5 -2.597899 -4.473168 -3.535534 -3.535534 
C -4.473168 -2.597899 -5 -1.326016 -5 0 
C -5 1.326016 -4.473168 2.597899 -3.535534 3.535534 
C -2.597899 4.473168 -1.326016 5 0 5 
z
" id="m0fb991c56b" style="stroke:#a91227;"/>
    </defs>
    <g clip-path="url(#p9cf9766619)">
     <use style="fill:#a91227;stroke:#a91227;" x="73.832727" xlink:href="#m0fb991c56b" y="275.328"/>
     <use style="fill:#a91227;stroke:#a91227;" x="74.049308" xlink:href="#m0fb991c56b" y="275.328"/>
     <use style="fill:#a91227;stroke:#a91227;" x="89.767721" xlink:href="#m0fb991c56b" y="275.328"/>
     <use style="fill:#a91227;stroke:#a91227;" x="94.661973" xlink:href="#m0fb991c56b" y="275.328"/>
     <use style="fill:#a91227;stroke:#a91227;" x="100.875459" xlink:href="#m0fb991c56b" y="275.328"/>
     <use style="fill:#a91227;stroke:#a91227;" x="128.615768" xlink:href="#m0fb991c56b" y="275.328"/>
     <use style="fill:#a91227;stroke:#a91227;" x="140.733853" xlink:href="#m0fb991c56b" y="275.328"/>
     <use style="fill:#a91227;stroke:#a91227;" x="166.632968" xlink:href="#m0fb991c56b" y="275.328"/>
     <use style="fill:#a91227;stroke:#a91227;" x="183.577319" xlink:href="#m0fb991c56b" y="275.328"/>
     <use style="fill:#a91227;stroke:#a91227;" x="196.155657" xlink:href="#m0fb991c56b" y="275.328"/>
     <use style="fill:#a91227;stroke:#a91227;" x="202.272349" xlink:href="#m0fb991c56b" y="275.328"/>
     <use style="fill:#a91227;stroke:#a91227;" x="244.638734" xlink:href="#m0fb991c56b" y="275.328"/>
     <use style="fill:#a91227;stroke:#a91227;" x="279.272513" xlink:href="#m0fb991c56b" y="275.328"/>
     <use style="fill:#a91227;stroke:#a91227;" x="282.933987" xlink:href="#m0fb991c56b" y="275.328"/>
     <use style="fill:#a91227;stroke:#a91227;" x="308.599379" xlink:href="#m0fb991c56b" y="275.328"/>
     <use style="fill:#a91227;stroke:#a91227;" x="359.044035" xlink:href="#m0fb991c56b" y="275.328"/>
     <use style="fill:#a91227;stroke:#a91227;" x="395.55197" xlink:href="#m0fb991c56b" y="275.328"/>
     <use style="fill:#a91227;stroke:#a91227;" x="397.220279" xlink:href="#m0fb991c56b" y="275.328"/>
    </g>
   </g>
   <g id="line2d_18">
    <path clip-path="url(#p9cf9766619)" d="M 73.832727 255.168 
L 74.049308 255.168 
L 102.532948 255.168 
L 114.69416 255.168 
L 157.096521 255.168 
L 162.938597 255.168 
L 163.109159 255.168 
L 189.978481 255.168 
L 203.384627 255.168 
L 206.08891 255.168 
L 239.685066 255.168 
L 255.35571 255.168 
L 257.833802 255.168 
L 279.177537 255.168 
L 366.742907 255.168 
L 367.628853 255.168 
" style="fill:none;stroke:#c83e1f;stroke-linecap:square;stroke-width:1.5;"/>
    <defs>
     <path d="M 0 5 
C 1.326016 5 2.597899 4.473168 3.535534 3.535534 
C 4.473168 2.597899 5 1.326016 5 0 
C 5 -1.326016 4.473168 -2.597899 3.535534 -3.535534 
C 2.597899 -4.473168 1.326016 -5 0 -5 
C -1.326016 -5 -2.597899 -4.473168 -3.535534 -3.535534 
C -4.473168 -2.597899 -5 -1.326016 -5 0 
C -5 1.326016 -4.473168 2.597899 -3.535534 3.535534 
C -2.597899 4.473168 -1.326016 5 0 5 
z
" id="mfb6aae7bd3" style="stroke:#c83e1f;"/>
    </defs>
    <g clip-path="url(#p9cf9766619)">
     <use style="fill:#c83e1f;stroke:#c83e1f;" x="73.832727" xlink:href="#mfb6aae7bd3" y="255.168"/>
     <use style="fill:#c83e1f;stroke:#c83e1f;" x="74.049308" xlink:href="#mfb6aae7bd3" y="255.168"/>
     <use style="fill:#c83e1f;stroke:#c83e1f;" x="102.532948" xlink:href="#mfb6aae7bd3" y="255.168"/>
     <use style="fill:#c83e1f;stroke:#c83e1f;" x="114.69416" xlink:href="#mfb6aae7bd3" y="255.168"/>
     <use style="fill:#c83e1f;stroke:#c83e1f;" x="157.096521" xlink:href="#mfb6aae7bd3" y="255.168"/>
     <use style="fill:#c83e1f;stroke:#c83e1f;" x="162.938597" xlink:href="#mfb6aae7bd3" y="255.168"/>
     <use style="fill:#c83e1f;stroke:#c83e1f;" x="163.109159" xlink:href="#mfb6aae7bd3" y="255.168"/>
     <use style="fill:#c83e1f;stroke:#c83e1f;" x="189.978481" xlink:href="#mfb6aae7bd3" y="255.168"/>
     <use style="fill:#c83e1f;stroke:#c83e1f;" x="203.384627" xlink:href="#mfb6aae7bd3" y="255.168"/>
     <use style="fill:#c83e1f;stroke:#c83e1f;" x="206.08891" xlink:href="#mfb6aae7bd3" y="255.168"/>
     <use style="fill:#c83e1f;stroke:#c83e1f;" x="239.685066" xlink:href="#mfb6aae7bd3" y="255.168"/>
     <use style="fill:#c83e1f;stroke:#c83e1f;" x="255.35571" xlink:href="#mfb6aae7bd3" y="255.168"/>
     <use style="fill:#c83e1f;stroke:#c83e1f;" x="257.833802" xlink:href="#mfb6aae7bd3" y="255.168"/>
     <use style="fill:#c83e1f;stroke:#c83e1f;" x="279.177537" xlink:href="#mfb6aae7bd3" y="255.168"/>
     <use style="fill:#c83e1f;stroke:#c83e1f;" x="366.742907" xlink:href="#mfb6aae7bd3" y="255.168"/>
     <use style="fill:#c83e1f;stroke:#c83e1f;" x="367.628853" xlink:href="#mfb6aae7bd3" y="255.168"/>
    </g>
   </g>
   <g id="line2d_19">
    <path clip-path="url(#p9cf9766619)" d="M 73.832727 235.008 
L 74.049308 235.008 
L 106.586976 235.008 
L 107.842641 235.008 
L 120.290165 235.008 
L 137.899165 235.008 
L 151.359601 235.008 
L 176.543732 235.008 
L 193.096693 235.008 
L 194.95433 235.008 
L 196.228163 235.008 
L 197.780778 235.008 
L 211.150361 235.008 
L 229.562893 235.008 
L 259.394605 235.008 
L 307.876572 235.008 
L 318.957177 235.008 
L 351.882611 235.008 
L 364.264528 235.008 
L 392.269215 235.008 
" style="fill:none;stroke:#d47532;stroke-linecap:square;stroke-width:1.5;"/>
    <defs>
     <path d="M 0 5 
C 1.326016 5 2.597899 4.473168 3.535534 3.535534 
C 4.473168 2.597899 5 1.326016 5 0 
C 5 -1.326016 4.473168 -2.597899 3.535534 -3.535534 
C 2.597899 -4.473168 1.326016 -5 0 -5 
C -1.326016 -5 -2.597899 -4.473168 -3.535534 -3.535534 
C -4.473168 -2.597899 -5 -1.326016 -5 0 
C -5 1.326016 -4.473168 2.597899 -3.535534 3.535534 
C -2.597899 4.473168 -1.326016 5 0 5 
z
" id="m0372e24be0" style="stroke:#d47532;"/>
    </defs>
    <g clip-path="url(#p9cf9766619)">
     <use style="fill:#d47532;stroke:#d47532;" x="73.832727" xlink:href="#m0372e24be0" y="235.008"/>
     <use style="fill:#d47532;stroke:#d47532;" x="74.049308" xlink:href="#m0372e24be0" y="235.008"/>
     <use style="fill:#d47532;stroke:#d47532;" x="106.586976" xlink:href="#m0372e24be0" y="235.008"/>
     <use style="fill:#d47532;stroke:#d47532;" x="107.842641" xlink:href="#m0372e24be0" y="235.008"/>
     <use style="fill:#d47532;stroke:#d47532;" x="120.290165" xlink:href="#m0372e24be0" y="235.008"/>
     <use style="fill:#d47532;stroke:#d47532;" x="137.899165" xlink:href="#m0372e24be0" y="235.008"/>
     <use style="fill:#d47532;stroke:#d47532;" x="151.359601" xlink:href="#m0372e24be0" y="235.008"/>
     <use style="fill:#d47532;stroke:#d47532;" x="176.543732" xlink:href="#m0372e24be0" y="235.008"/>
     <use style="fill:#d47532;stroke:#d47532;" x="193.096693" xlink:href="#m0372e24be0" y="235.008"/>
     <use style="fill:#d47532;stroke:#d47532;" x="194.95433" xlink:href="#m0372e24be0" y="235.008"/>
     <use style="fill:#d47532;stroke:#d47532;" x="196.228163" xlink:href="#m0372e24be0" y="235.008"/>
     <use style="fill:#d47532;stroke:#d47532;" x="197.780778" xlink:href="#m0372e24be0" y="235.008"/>
     <use style="fill:#d47532;stroke:#d47532;" x="211.150361" xlink:href="#m0372e24be0" y="235.008"/>
     <use style="fill:#d47532;stroke:#d47532;" x="229.562893" xlink:href="#m0372e24be0" y="235.008"/>
     <use style="fill:#d47532;stroke:#d47532;" x="259.394605" xlink:href="#m0372e24be0" y="235.008"/>
     <use style="fill:#d47532;stroke:#d47532;" x="307.876572" xlink:href="#m0372e24be0" y="235.008"/>
     <use style="fill:#d47532;stroke:#d47532;" x="318.957177" xlink:href="#m0372e24be0" y="235.008"/>
     <use style="fill:#d47532;stroke:#d47532;" x="351.882611" xlink:href="#m0372e24be0" y="235.008"/>
     <use style="fill:#d47532;stroke:#d47532;" x="364.264528" xlink:href="#m0372e24be0" y="235.008"/>
     <use style="fill:#d47532;stroke:#d47532;" x="392.269215" xlink:href="#m0372e24be0" y="235.008"/>
    </g>
   </g>
   <g id="line2d_20">
    <path clip-path="url(#p9cf9766619)" d="M 73.832727 214.848 
L 74.049308 214.848 
L 85.606735 214.848 
L 116.819478 214.848 
L 120.625249 214.848 
L 152.415948 214.848 
L 165.314879 214.848 
L 167.806875 214.848 
L 187.383945 214.848 
L 193.555724 214.848 
L 212.276372 214.848 
L 270.845751 214.848 
L 271.663714 214.848 
L 271.671566 214.848 
L 297.810738 214.848 
L 310.892006 214.848 
L 312.868959 214.848 
L 320.255285 214.848 
L 335.155627 214.848 
L 349.467227 214.848 
L 356.415837 214.848 
L 376.595325 214.848 
L 389.291832 214.848 
" style="fill:none;stroke:#d7a856;stroke-linecap:square;stroke-width:1.5;"/>
    <defs>
     <path d="M 0 5 
C 1.326016 5 2.597899 4.473168 3.535534 3.535534 
C 4.473168 2.597899 5 1.326016 5 0 
C 5 -1.326016 4.473168 -2.597899 3.535534 -3.535534 
C 2.597899 -4.473168 1.326016 -5 0 -5 
C -1.326016 -5 -2.597899 -4.473168 -3.535534 -3.535534 
C -4.473168 -2.597899 -5 -1.326016 -5 0 
C -5 1.326016 -4.473168 2.597899 -3.535534 3.535534 
C -2.597899 4.473168 -1.326016 5 0 5 
z
" id="m881ee7b6b1" style="stroke:#d7a856;"/>
    </defs>
    <g clip-path="url(#p9cf9766619)">
     <use style="fill:#d7a856;stroke:#d7a856;" x="73.832727" xlink:href="#m881ee7b6b1" y="214.848"/>
     <use style="fill:#d7a856;stroke:#d7a856;" x="74.049308" xlink:href="#m881ee7b6b1" y="214.848"/>
     <use style="fill:#d7a856;stroke:#d7a856;" x="85.606735" xlink:href="#m881ee7b6b1" y="214.848"/>
     <use style="fill:#d7a856;stroke:#d7a856;" x="116.819478" xlink:href="#m881ee7b6b1" y="214.848"/>
     <use style="fill:#d7a856;stroke:#d7a856;" x="120.625249" xlink:href="#m881ee7b6b1" y="214.848"/>
     <use style="fill:#d7a856;stroke:#d7a856;" x="152.415948" xlink:href="#m881ee7b6b1" y="214.848"/>
     <use style="fill:#d7a856;stroke:#d7a856;" x="165.314879" xlink:href="#m881ee7b6b1" y="214.848"/>
     <use style="fill:#d7a856;stroke:#d7a856;" x="167.806875" xlink:href="#m881ee7b6b1" y="214.848"/>
     <use style="fill:#d7a856;stroke:#d7a856;" x="187.383945" xlink:href="#m881ee7b6b1" y="214.848"/>
     <use style="fill:#d7a856;stroke:#d7a856;" x="193.555724" xlink:href="#m881ee7b6b1" y="214.848"/>
     <use style="fill:#d7a856;stroke:#d7a856;" x="212.276372" xlink:href="#m881ee7b6b1" y="214.848"/>
     <use style="fill:#d7a856;stroke:#d7a856;" x="270.845751" xlink:href="#m881ee7b6b1" y="214.848"/>
     <use style="fill:#d7a856;stroke:#d7a856;" x="271.663714" xlink:href="#m881ee7b6b1" y="214.848"/>
     <use style="fill:#d7a856;stroke:#d7a856;" x="271.671566" xlink:href="#m881ee7b6b1" y="214.848"/>
     <use style="fill:#d7a856;stroke:#d7a856;" x="297.810738" xlink:href="#m881ee7b6b1" y="214.848"/>
     <use style="fill:#d7a856;stroke:#d7a856;" x="310.892006" xlink:href="#m881ee7b6b1" y="214.848"/>
     <use style="fill:#d7a856;stroke:#d7a856;" x="312.868959" xlink:href="#m881ee7b6b1" y="214.848"/>
     <use style="fill:#d7a856;stroke:#d7a856;" x="320.255285" xlink:href="#m881ee7b6b1" y="214.848"/>
     <use style="fill:#d7a856;stroke:#d7a856;" x="335.155627" xlink:href="#m881ee7b6b1" y="214.848"/>
     <use style="fill:#d7a856;stroke:#d7a856;" x="349.467227" xlink:href="#m881ee7b6b1" y="214.848"/>
     <use style="fill:#d7a856;stroke:#d7a856;" x="356.415837" xlink:href="#m881ee7b6b1" y="214.848"/>
     <use style="fill:#d7a856;stroke:#d7a856;" x="376.595325" xlink:href="#m881ee7b6b1" y="214.848"/>
     <use style="fill:#d7a856;stroke:#d7a856;" x="389.291832" xlink:href="#m881ee7b6b1" y="214.848"/>
    </g>
   </g>
   <g id="line2d_21">
    <path clip-path="url(#p9cf9766619)" d="M 73.832727 194.688 
L 74.049308 194.688 
L 75.744691 194.688 
L 81.763725 194.688 
L 102.602813 194.688 
L 103.709274 194.688 
L 112.992895 194.688 
L 153.796917 194.688 
L 166.389335 194.688 
L 203.525414 194.688 
L 212.804441 194.688 
L 225.43659 194.688 
L 260.445687 194.688 
L 261.398626 194.688 
L 272.627533 194.688 
L 273.619896 194.688 
L 280.239116 194.688 
L 301.59685 194.688 
L 351.883799 194.688 
L 388.608458 194.688 
" style="fill:none;stroke:#d8cb81;stroke-linecap:square;stroke-width:1.5;"/>
    <defs>
     <path d="M 0 5 
C 1.326016 5 2.597899 4.473168 3.535534 3.535534 
C 4.473168 2.597899 5 1.326016 5 0 
C 5 -1.326016 4.473168 -2.597899 3.535534 -3.535534 
C 2.597899 -4.473168 1.326016 -5 0 -5 
C -1.326016 -5 -2.597899 -4.473168 -3.535534 -3.535534 
C -4.473168 -2.597899 -5 -1.326016 -5 0 
C -5 1.326016 -4.473168 2.597899 -3.535534 3.535534 
C -2.597899 4.473168 -1.326016 5 0 5 
z
" id="m2e89a9d729" style="stroke:#d8cb81;"/>
    </defs>
    <g clip-path="url(#p9cf9766619)">
     <use style="fill:#d8cb81;stroke:#d8cb81;" x="73.832727" xlink:href="#m2e89a9d729" y="194.688"/>
     <use style="fill:#d8cb81;stroke:#d8cb81;" x="74.049308" xlink:href="#m2e89a9d729" y="194.688"/>
     <use style="fill:#d8cb81;stroke:#d8cb81;" x="75.744691" xlink:href="#m2e89a9d729" y="194.688"/>
     <use style="fill:#d8cb81;stroke:#d8cb81;" x="81.763725" xlink:href="#m2e89a9d729" y="194.688"/>
     <use style="fill:#d8cb81;stroke:#d8cb81;" x="102.602813" xlink:href="#m2e89a9d729" y="194.688"/>
     <use style="fill:#d8cb81;stroke:#d8cb81;" x="103.709274" xlink:href="#m2e89a9d729" y="194.688"/>
     <use style="fill:#d8cb81;stroke:#d8cb81;" x="112.992895" xlink:href="#m2e89a9d729" y="194.688"/>
     <use style="fill:#d8cb81;stroke:#d8cb81;" x="153.796917" xlink:href="#m2e89a9d729" y="194.688"/>
     <use style="fill:#d8cb81;stroke:#d8cb81;" x="166.389335" xlink:href="#m2e89a9d729" y="194.688"/>
     <use style="fill:#d8cb81;stroke:#d8cb81;" x="203.525414" xlink:href="#m2e89a9d729" y="194.688"/>
     <use style="fill:#d8cb81;stroke:#d8cb81;" x="212.804441" xlink:href="#m2e89a9d729" y="194.688"/>
     <use style="fill:#d8cb81;stroke:#d8cb81;" x="225.43659" xlink:href="#m2e89a9d729" y="194.688"/>
     <use style="fill:#d8cb81;stroke:#d8cb81;" x="260.445687" xlink:href="#m2e89a9d729" y="194.688"/>
     <use style="fill:#d8cb81;stroke:#d8cb81;" x="261.398626" xlink:href="#m2e89a9d729" y="194.688"/>
     <use style="fill:#d8cb81;stroke:#d8cb81;" x="272.627533" xlink:href="#m2e89a9d729" y="194.688"/>
     <use style="fill:#d8cb81;stroke:#d8cb81;" x="273.619896" xlink:href="#m2e89a9d729" y="194.688"/>
     <use style="fill:#d8cb81;stroke:#d8cb81;" x="280.239116" xlink:href="#m2e89a9d729" y="194.688"/>
     <use style="fill:#d8cb81;stroke:#d8cb81;" x="301.59685" xlink:href="#m2e89a9d729" y="194.688"/>
     <use style="fill:#d8cb81;stroke:#d8cb81;" x="351.883799" xlink:href="#m2e89a9d729" y="194.688"/>
     <use style="fill:#d8cb81;stroke:#d8cb81;" x="388.608458" xlink:href="#m2e89a9d729" y="194.688"/>
    </g>
   </g>
   <g id="line2d_22">
    <path clip-path="url(#p9cf9766619)" d="M 73.832727 174.528 
L 74.049308 174.528 
L 96.917147 174.528 
L 100.596569 174.528 
L 127.29933 174.528 
L 129.880371 174.528 
L 131.694393 174.528 
L 139.247496 174.528 
L 166.283027 174.528 
L 195.094505 174.528 
L 199.803719 174.528 
L 215.020823 174.528 
L 215.792409 174.528 
L 222.823261 174.528 
L 259.955203 174.528 
L 294.240417 174.528 
L 297.765982 174.528 
L 321.234993 174.528 
L 364.617045 174.528 
" style="fill:none;stroke:#cdd487;stroke-linecap:square;stroke-width:1.5;"/>
    <defs>
     <path d="M 0 5 
C 1.326016 5 2.597899 4.473168 3.535534 3.535534 
C 4.473168 2.597899 5 1.326016 5 0 
C 5 -1.326016 4.473168 -2.597899 3.535534 -3.535534 
C 2.597899 -4.473168 1.326016 -5 0 -5 
C -1.326016 -5 -2.597899 -4.473168 -3.535534 -3.535534 
C -4.473168 -2.597899 -5 -1.326016 -5 0 
C -5 1.326016 -4.473168 2.597899 -3.535534 3.535534 
C -2.597899 4.473168 -1.326016 5 0 5 
z
" id="m253b881091" style="stroke:#cdd487;"/>
    </defs>
    <g clip-path="url(#p9cf9766619)">
     <use style="fill:#cdd487;stroke:#cdd487;" x="73.832727" xlink:href="#m253b881091" y="174.528"/>
     <use style="fill:#cdd487;stroke:#cdd487;" x="74.049308" xlink:href="#m253b881091" y="174.528"/>
     <use style="fill:#cdd487;stroke:#cdd487;" x="96.917147" xlink:href="#m253b881091" y="174.528"/>
     <use style="fill:#cdd487;stroke:#cdd487;" x="100.596569" xlink:href="#m253b881091" y="174.528"/>
     <use style="fill:#cdd487;stroke:#cdd487;" x="127.29933" xlink:href="#m253b881091" y="174.528"/>
     <use style="fill:#cdd487;stroke:#cdd487;" x="129.880371" xlink:href="#m253b881091" y="174.528"/>
     <use style="fill:#cdd487;stroke:#cdd487;" x="131.694393" xlink:href="#m253b881091" y="174.528"/>
     <use style="fill:#cdd487;stroke:#cdd487;" x="139.247496" xlink:href="#m253b881091" y="174.528"/>
     <use style="fill:#cdd487;stroke:#cdd487;" x="166.283027" xlink:href="#m253b881091" y="174.528"/>
     <use style="fill:#cdd487;stroke:#cdd487;" x="195.094505" xlink:href="#m253b881091" y="174.528"/>
     <use style="fill:#cdd487;stroke:#cdd487;" x="199.803719" xlink:href="#m253b881091" y="174.528"/>
     <use style="fill:#cdd487;stroke:#cdd487;" x="215.020823" xlink:href="#m253b881091" y="174.528"/>
     <use style="fill:#cdd487;stroke:#cdd487;" x="215.792409" xlink:href="#m253b881091" y="174.528"/>
     <use style="fill:#cdd487;stroke:#cdd487;" x="222.823261" xlink:href="#m253b881091" y="174.528"/>
     <use style="fill:#cdd487;stroke:#cdd487;" x="259.955203" xlink:href="#m253b881091" y="174.528"/>
     <use style="fill:#cdd487;stroke:#cdd487;" x="294.240417" xlink:href="#m253b881091" y="174.528"/>
     <use style="fill:#cdd487;stroke:#cdd487;" x="297.765982" xlink:href="#m253b881091" y="174.528"/>
     <use style="fill:#cdd487;stroke:#cdd487;" x="321.234993" xlink:href="#m253b881091" y="174.528"/>
     <use style="fill:#cdd487;stroke:#cdd487;" x="364.617045" xlink:href="#m253b881091" y="174.528"/>
    </g>
   </g>
   <g id="line2d_23">
    <path clip-path="url(#p9cf9766619)" d="M 73.832727 154.368 
L 74.049308 154.368 
L 88.630379 154.368 
L 105.166523 154.368 
L 127.213466 154.368 
L 139.409826 154.368 
L 151.889258 154.368 
L 164.678169 154.368 
L 175.639321 154.368 
L 177.316267 154.368 
L 211.672841 154.368 
L 241.542318 154.368 
L 242.382173 154.368 
L 244.942769 154.368 
L 278.6334 154.368 
L 314.299905 154.368 
L 328.472176 154.368 
L 385.2849 154.368 
L 397.557146 154.368 
" style="fill:none;stroke:#abc676;stroke-linecap:square;stroke-width:1.5;"/>
    <defs>
     <path d="M 0 5 
C 1.326016 5 2.597899 4.473168 3.535534 3.535534 
C 4.473168 2.597899 5 1.326016 5 0 
C 5 -1.326016 4.473168 -2.597899 3.535534 -3.535534 
C 2.597899 -4.473168 1.326016 -5 0 -5 
C -1.326016 -5 -2.597899 -4.473168 -3.535534 -3.535534 
C -4.473168 -2.597899 -5 -1.326016 -5 0 
C -5 1.326016 -4.473168 2.597899 -3.535534 3.535534 
C -2.597899 4.473168 -1.326016 5 0 5 
z
" id="m80376bdc5e" style="stroke:#abc676;"/>
    </defs>
    <g clip-path="url(#p9cf9766619)">
     <use style="fill:#abc676;stroke:#abc676;" x="73.832727" xlink:href="#m80376bdc5e" y="154.368"/>
     <use style="fill:#abc676;stroke:#abc676;" x="74.049308" xlink:href="#m80376bdc5e" y="154.368"/>
     <use style="fill:#abc676;stroke:#abc676;" x="88.630379" xlink:href="#m80376bdc5e" y="154.368"/>
     <use style="fill:#abc676;stroke:#abc676;" x="105.166523" xlink:href="#m80376bdc5e" y="154.368"/>
     <use style="fill:#abc676;stroke:#abc676;" x="127.213466" xlink:href="#m80376bdc5e" y="154.368"/>
     <use style="fill:#abc676;stroke:#abc676;" x="139.409826" xlink:href="#m80376bdc5e" y="154.368"/>
     <use style="fill:#abc676;stroke:#abc676;" x="151.889258" xlink:href="#m80376bdc5e" y="154.368"/>
     <use style="fill:#abc676;stroke:#abc676;" x="164.678169" xlink:href="#m80376bdc5e" y="154.368"/>
     <use style="fill:#abc676;stroke:#abc676;" x="175.639321" xlink:href="#m80376bdc5e" y="154.368"/>
     <use style="fill:#abc676;stroke:#abc676;" x="177.316267" xlink:href="#m80376bdc5e" y="154.368"/>
     <use style="fill:#abc676;stroke:#abc676;" x="211.672841" xlink:href="#m80376bdc5e" y="154.368"/>
     <use style="fill:#abc676;stroke:#abc676;" x="241.542318" xlink:href="#m80376bdc5e" y="154.368"/>
     <use style="fill:#abc676;stroke:#abc676;" x="242.382173" xlink:href="#m80376bdc5e" y="154.368"/>
     <use style="fill:#abc676;stroke:#abc676;" x="244.942769" xlink:href="#m80376bdc5e" y="154.368"/>
     <use style="fill:#abc676;stroke:#abc676;" x="278.6334" xlink:href="#m80376bdc5e" y="154.368"/>
     <use style="fill:#abc676;stroke:#abc676;" x="314.299905" xlink:href="#m80376bdc5e" y="154.368"/>
     <use style="fill:#abc676;stroke:#abc676;" x="328.472176" xlink:href="#m80376bdc5e" y="154.368"/>
     <use style="fill:#abc676;stroke:#abc676;" x="385.2849" xlink:href="#m80376bdc5e" y="154.368"/>
     <use style="fill:#abc676;stroke:#abc676;" x="397.557146" xlink:href="#m80376bdc5e" y="154.368"/>
    </g>
   </g>
   <g id="line2d_24">
    <path clip-path="url(#p9cf9766619)" d="M 73.832727 134.208 
L 74.049308 134.208 
L 79.089456 134.208 
L 83.247205 134.208 
L 83.628448 134.208 
L 86.222441 134.208 
L 89.821865 134.208 
L 113.302368 134.208 
L 125.497488 134.208 
L 177.706371 134.208 
L 185.798812 134.208 
L 194.333775 134.208 
L 200.409663 134.208 
L 217.66991 134.208 
L 227.01334 134.208 
L 233.82139 134.208 
L 233.911633 134.208 
L 234.72932 134.208 
L 264.083558 134.208 
L 285.02604 134.208 
" style="fill:none;stroke:#70af7e;stroke-linecap:square;stroke-width:1.5;"/>
    <defs>
     <path d="M 0 5 
C 1.326016 5 2.597899 4.473168 3.535534 3.535534 
C 4.473168 2.597899 5 1.326016 5 0 
C 5 -1.326016 4.473168 -2.597899 3.535534 -3.535534 
C 2.597899 -4.473168 1.326016 -5 0 -5 
C -1.326016 -5 -2.597899 -4.473168 -3.535534 -3.535534 
C -4.473168 -2.597899 -5 -1.326016 -5 0 
C -5 1.326016 -4.473168 2.597899 -3.535534 3.535534 
C -2.597899 4.473168 -1.326016 5 0 5 
z
" id="m5b24880936" style="stroke:#70af7e;"/>
    </defs>
    <g clip-path="url(#p9cf9766619)">
     <use style="fill:#70af7e;stroke:#70af7e;" x="73.832727" xlink:href="#m5b24880936" y="134.208"/>
     <use style="fill:#70af7e;stroke:#70af7e;" x="74.049308" xlink:href="#m5b24880936" y="134.208"/>
     <use style="fill:#70af7e;stroke:#70af7e;" x="79.089456" xlink:href="#m5b24880936" y="134.208"/>
     <use style="fill:#70af7e;stroke:#70af7e;" x="83.247205" xlink:href="#m5b24880936" y="134.208"/>
     <use style="fill:#70af7e;stroke:#70af7e;" x="83.628448" xlink:href="#m5b24880936" y="134.208"/>
     <use style="fill:#70af7e;stroke:#70af7e;" x="86.222441" xlink:href="#m5b24880936" y="134.208"/>
     <use style="fill:#70af7e;stroke:#70af7e;" x="89.821865" xlink:href="#m5b24880936" y="134.208"/>
     <use style="fill:#70af7e;stroke:#70af7e;" x="113.302368" xlink:href="#m5b24880936" y="134.208"/>
     <use style="fill:#70af7e;stroke:#70af7e;" x="125.497488" xlink:href="#m5b24880936" y="134.208"/>
     <use style="fill:#70af7e;stroke:#70af7e;" x="177.706371" xlink:href="#m5b24880936" y="134.208"/>
     <use style="fill:#70af7e;stroke:#70af7e;" x="185.798812" xlink:href="#m5b24880936" y="134.208"/>
     <use style="fill:#70af7e;stroke:#70af7e;" x="194.333775" xlink:href="#m5b24880936" y="134.208"/>
     <use style="fill:#70af7e;stroke:#70af7e;" x="200.409663" xlink:href="#m5b24880936" y="134.208"/>
     <use style="fill:#70af7e;stroke:#70af7e;" x="217.66991" xlink:href="#m5b24880936" y="134.208"/>
     <use style="fill:#70af7e;stroke:#70af7e;" x="227.01334" xlink:href="#m5b24880936" y="134.208"/>
     <use style="fill:#70af7e;stroke:#70af7e;" x="233.82139" xlink:href="#m5b24880936" y="134.208"/>
     <use style="fill:#70af7e;stroke:#70af7e;" x="233.911633" xlink:href="#m5b24880936" y="134.208"/>
     <use style="fill:#70af7e;stroke:#70af7e;" x="234.72932" xlink:href="#m5b24880936" y="134.208"/>
     <use style="fill:#70af7e;stroke:#70af7e;" x="264.083558" xlink:href="#m5b24880936" y="134.208"/>
     <use style="fill:#70af7e;stroke:#70af7e;" x="285.02604" xlink:href="#m5b24880936" y="134.208"/>
    </g>
   </g>
   <g id="line2d_25">
    <path clip-path="url(#p9cf9766619)" d="M 73.832727 114.048 
L 74.049308 114.048 
L 75.416536 114.048 
L 110.230317 114.048 
L 119.91464 114.048 
L 123.240075 114.048 
L 156.787516 114.048 
L 157.941028 114.048 
L 164.053841 114.048 
L 182.385334 114.048 
L 207.400723 114.048 
L 237.723907 114.048 
L 243.0415 114.048 
L 277.846544 114.048 
L 300.100929 114.048 
L 301.676857 114.048 
L 303.111011 114.048 
L 325.65133 114.048 
L 374.802393 114.048 
L 377.59793 114.048 
L 384.165696 114.048 
L 394.750978 114.048 
L 395.724511 114.048 
" style="fill:none;stroke:#369083;stroke-linecap:square;stroke-width:1.5;"/>
    <defs>
     <path d="M 0 5 
C 1.326016 5 2.597899 4.473168 3.535534 3.535534 
C 4.473168 2.597899 5 1.326016 5 0 
C 5 -1.326016 4.473168 -2.597899 3.535534 -3.535534 
C 2.597899 -4.473168 1.326016 -5 0 -5 
C -1.326016 -5 -2.597899 -4.473168 -3.535534 -3.535534 
C -4.473168 -2.597899 -5 -1.326016 -5 0 
C -5 1.326016 -4.473168 2.597899 -3.535534 3.535534 
C -2.597899 4.473168 -1.326016 5 0 5 
z
" id="m54471a7eeb" style="stroke:#369083;"/>
    </defs>
    <g clip-path="url(#p9cf9766619)">
     <use style="fill:#369083;stroke:#369083;" x="73.832727" xlink:href="#m54471a7eeb" y="114.048"/>
     <use style="fill:#369083;stroke:#369083;" x="74.049308" xlink:href="#m54471a7eeb" y="114.048"/>
     <use style="fill:#369083;stroke:#369083;" x="75.416536" xlink:href="#m54471a7eeb" y="114.048"/>
     <use style="fill:#369083;stroke:#369083;" x="110.230317" xlink:href="#m54471a7eeb" y="114.048"/>
     <use style="fill:#369083;stroke:#369083;" x="119.91464" xlink:href="#m54471a7eeb" y="114.048"/>
     <use style="fill:#369083;stroke:#369083;" x="123.240075" xlink:href="#m54471a7eeb" y="114.048"/>
     <use style="fill:#369083;stroke:#369083;" x="156.787516" xlink:href="#m54471a7eeb" y="114.048"/>
     <use style="fill:#369083;stroke:#369083;" x="157.941028" xlink:href="#m54471a7eeb" y="114.048"/>
     <use style="fill:#369083;stroke:#369083;" x="164.053841" xlink:href="#m54471a7eeb" y="114.048"/>
     <use style="fill:#369083;stroke:#369083;" x="182.385334" xlink:href="#m54471a7eeb" y="114.048"/>
     <use style="fill:#369083;stroke:#369083;" x="207.400723" xlink:href="#m54471a7eeb" y="114.048"/>
     <use style="fill:#369083;stroke:#369083;" x="237.723907" xlink:href="#m54471a7eeb" y="114.048"/>
     <use style="fill:#369083;stroke:#369083;" x="243.0415" xlink:href="#m54471a7eeb" y="114.048"/>
     <use style="fill:#369083;stroke:#369083;" x="277.846544" xlink:href="#m54471a7eeb" y="114.048"/>
     <use style="fill:#369083;stroke:#369083;" x="300.100929" xlink:href="#m54471a7eeb" y="114.048"/>
     <use style="fill:#369083;stroke:#369083;" x="301.676857" xlink:href="#m54471a7eeb" y="114.048"/>
     <use style="fill:#369083;stroke:#369083;" x="303.111011" xlink:href="#m54471a7eeb" y="114.048"/>
     <use style="fill:#369083;stroke:#369083;" x="325.65133" xlink:href="#m54471a7eeb" y="114.048"/>
     <use style="fill:#369083;stroke:#369083;" x="374.802393" xlink:href="#m54471a7eeb" y="114.048"/>
     <use style="fill:#369083;stroke:#369083;" x="377.59793" xlink:href="#m54471a7eeb" y="114.048"/>
     <use style="fill:#369083;stroke:#369083;" x="384.165696" xlink:href="#m54471a7eeb" y="114.048"/>
     <use style="fill:#369083;stroke:#369083;" x="394.750978" xlink:href="#m54471a7eeb" y="114.048"/>
     <use style="fill:#369083;stroke:#369083;" x="395.724511" xlink:href="#m54471a7eeb" y="114.048"/>
    </g>
   </g>
   <g id="line2d_26">
    <path clip-path="url(#p9cf9766619)" d="M 73.832727 93.888 
L 74.049308 93.888 
L 76.591281 93.888 
L 83.875428 93.888 
L 93.73814 93.888 
L 106.857404 93.888 
L 111.510318 93.888 
L 113.193861 93.888 
L 118.736485 93.888 
L 131.783535 93.888 
L 163.379542 93.888 
L 185.464978 93.888 
L 186.708138 93.888 
L 187.420127 93.888 
L 227.499932 93.888 
L 227.789712 93.888 
L 270.20641 93.888 
L 287.107247 93.888 
L 308.779357 93.888 
L 320.054945 93.888 
L 323.252868 93.888 
L 361.065722 93.888 
L 376.559788 93.888 
L 377.999798 93.888 
L 390.105418 93.888 
" style="fill:none;stroke:#105c94;stroke-linecap:square;stroke-width:1.5;"/>
    <defs>
     <path d="M 0 5 
C 1.326016 5 2.597899 4.473168 3.535534 3.535534 
C 4.473168 2.597899 5 1.326016 5 0 
C 5 -1.326016 4.473168 -2.597899 3.535534 -3.535534 
C 2.597899 -4.473168 1.326016 -5 0 -5 
C -1.326016 -5 -2.597899 -4.473168 -3.535534 -3.535534 
C -4.473168 -2.597899 -5 -1.326016 -5 0 
C -5 1.326016 -4.473168 2.597899 -3.535534 3.535534 
C -2.597899 4.473168 -1.326016 5 0 5 
z
" id="m185185936f" style="stroke:#105c94;"/>
    </defs>
    <g clip-path="url(#p9cf9766619)">
     <use style="fill:#105c94;stroke:#105c94;" x="73.832727" xlink:href="#m185185936f" y="93.888"/>
     <use style="fill:#105c94;stroke:#105c94;" x="74.049308" xlink:href="#m185185936f" y="93.888"/>
     <use style="fill:#105c94;stroke:#105c94;" x="76.591281" xlink:href="#m185185936f" y="93.888"/>
     <use style="fill:#105c94;stroke:#105c94;" x="83.875428" xlink:href="#m185185936f" y="93.888"/>
     <use style="fill:#105c94;stroke:#105c94;" x="93.73814" xlink:href="#m185185936f" y="93.888"/>
     <use style="fill:#105c94;stroke:#105c94;" x="106.857404" xlink:href="#m185185936f" y="93.888"/>
     <use style="fill:#105c94;stroke:#105c94;" x="111.510318" xlink:href="#m185185936f" y="93.888"/>
     <use style="fill:#105c94;stroke:#105c94;" x="113.193861" xlink:href="#m185185936f" y="93.888"/>
     <use style="fill:#105c94;stroke:#105c94;" x="118.736485" xlink:href="#m185185936f" y="93.888"/>
     <use style="fill:#105c94;stroke:#105c94;" x="131.783535" xlink:href="#m185185936f" y="93.888"/>
     <use style="fill:#105c94;stroke:#105c94;" x="163.379542" xlink:href="#m185185936f" y="93.888"/>
     <use style="fill:#105c94;stroke:#105c94;" x="185.464978" xlink:href="#m185185936f" y="93.888"/>
     <use style="fill:#105c94;stroke:#105c94;" x="186.708138" xlink:href="#m185185936f" y="93.888"/>
     <use style="fill:#105c94;stroke:#105c94;" x="187.420127" xlink:href="#m185185936f" y="93.888"/>
     <use style="fill:#105c94;stroke:#105c94;" x="227.499932" xlink:href="#m185185936f" y="93.888"/>
     <use style="fill:#105c94;stroke:#105c94;" x="227.789712" xlink:href="#m185185936f" y="93.888"/>
     <use style="fill:#105c94;stroke:#105c94;" x="270.20641" xlink:href="#m185185936f" y="93.888"/>
     <use style="fill:#105c94;stroke:#105c94;" x="287.107247" xlink:href="#m185185936f" y="93.888"/>
     <use style="fill:#105c94;stroke:#105c94;" x="308.779357" xlink:href="#m185185936f" y="93.888"/>
     <use style="fill:#105c94;stroke:#105c94;" x="320.054945" xlink:href="#m185185936f" y="93.888"/>
     <use style="fill:#105c94;stroke:#105c94;" x="323.252868" xlink:href="#m185185936f" y="93.888"/>
     <use style="fill:#105c94;stroke:#105c94;" x="361.065722" xlink:href="#m185185936f" y="93.888"/>
     <use style="fill:#105c94;stroke:#105c94;" x="376.559788" xlink:href="#m185185936f" y="93.888"/>
     <use style="fill:#105c94;stroke:#105c94;" x="377.999798" xlink:href="#m185185936f" y="93.888"/>
     <use style="fill:#105c94;stroke:#105c94;" x="390.105418" xlink:href="#m185185936f" y="93.888"/>
    </g>
   </g>
   <g id="line2d_27"/>
   <g id="patch_3">
    <path d="M 57.6 307.584 
L 57.6 41.472 
" style="fill:none;stroke:#000000;stroke-linecap:square;stroke-linejoin:miter;stroke-width:0.8;"/>
   </g>
   <g id="patch_4">
    <path d="M 414.72 307.584 
L 414.72 41.472 
" style="fill:none;stroke:#000000;stroke-linecap:square;stroke-linejoin:miter;stroke-width:0.8;"/>
   </g>
   <g id="patch_5">
    <path d="M 57.6 307.584 
L 414.72 307.584 
" style="fill:none;stroke:#000000;stroke-linecap:square;stroke-linejoin:miter;stroke-width:0.8;"/>
   </g>
   <g id="patch_6">
    <path d="M 57.6 41.472 
L 414.72 41.472 
" style="fill:none;stroke:#000000;stroke-linecap:square;stroke-linejoin:miter;stroke-width:0.8;"/>
   </g>
   <g id="text_18">
    <!-- 0.012 Hz -->
    <defs>
     <path d="M 10.6875 12.40625 
L 21 12.40625 
L 21 0 
L 10.6875 0 
z
" id="DejaVuSans-2e"/>
     <path d="M 9.8125 72.90625 
L 19.671875 72.90625 
L 19.671875 43.015625 
L 55.515625 43.015625 
L 55.515625 72.90625 
L 65.375 72.90625 
L 65.375 0 
L 55.515625 0 
L 55.515625 34.71875 
L 19.671875 34.71875 
L 19.671875 0 
L 9.8125 0 
z
" id="DejaVuSans-48"/>
     <path d="M 5.515625 54.6875 
L 48.1875 54.6875 
L 48.1875 46.484375 
L 14.40625 7.171875 
L 48.1875 7.171875 
L 48.1875 0 
L 4.296875 0 
L 4.296875 8.203125 
L 38.09375 47.515625 
L 5.515625 47.515625 
z
" id="DejaVuSans-7a"/>
    </defs>
    <g transform="translate(189.72154 90.544563)rotate(-90)scale(0.1 -0.1)">
     <use xlink:href="#DejaVuSans-30"/>
     <use x="63.623047" xlink:href="#DejaVuSans-2e"/>
     <use x="95.410156" xlink:href="#DejaVuSans-30"/>
     <use x="159.033203" xlink:href="#DejaVuSans-31"/>
     <use x="222.65625" xlink:href="#DejaVuSans-32"/>
     <use x="286.279297" xlink:href="#DejaVuSans-20"/>
     <use x="318.066406" xlink:href="#DejaVuSans-48"/>
     <use x="393.261719" xlink:href="#DejaVuSans-7a"/>
    </g>
   </g>
  </g>
 </g>
 <defs>
  <clipPath id="p9cf9766619">
   <rect height="266.112" width="357.12" x="57.6" y="41.472"/>
  </clipPath>
 </defs>
</svg>
